<?xml version="1.0" encoding="UTF-8" standalone="no"?>
<!DOCTYPE svg PUBLIC "-//W3C//DTD SVG 1.1//EN" "http://www.w3.org/Graphics/SVG/1.1/DTD/svg11.dtd">
<svg width="100%" height="100%" viewBox="0 0 464 509" version="1.1" xmlns="http://www.w3.org/2000/svg" xmlns:xlink="http://www.w3.org/1999/xlink" xml:space="preserve" xmlns:serif="http://www.serif.com/" style="fill-rule:evenodd;clip-rule:evenodd;stroke-linejoin:round;stroke-miterlimit:2;">
    <g transform="matrix(1,0,0,1,-1093.263482,-182.53542)">
        <g transform="matrix(1.228516,0,0,1.228516,694.553679,71.694602)">
            <path d="M636.494,205.5C636.522,216.041 637.137,219.852 634.46,220.008C633.582,220.059 633.585,219.72 623.467,220.04C620.281,220.141 621.138,223.425 621.1,234.493C621.086,238.555 617.855,237.531 608.501,237.557C604.39,237.568 605.639,239.435 605.627,243.499C605.612,248.583 606.414,253.283 603.49,253.401C592.101,253.86 590.447,252.427 590.328,255.485C589.824,268.43 590.969,269.771 588.446,270.006C584.382,270.385 575.911,268.817 575.304,271.451C575.267,271.614 575.059,284.537 575.608,285.437C576.262,286.506 576.653,286.223 617.502,286.225C618.688,286.226 621.804,285.565 621.878,288.461C622.183,300.405 620.821,301.799 623.558,302.076C625.464,302.269 625.459,302.072 647.504,302.179C647.975,302.181 652.806,302.205 653.339,301.396C654.384,299.806 652.658,287.822 654.613,286.701C655.821,286.008 684.543,286.415 685.429,286.15C692.266,284.107 692.356,284.942 699.521,285.138C702.684,285.225 702.242,286.851 702.165,298.498C702.132,303.489 699.415,301.03 688.499,301.488C684.805,301.642 686.667,303.663 686.379,315.49C686.288,319.2 684.086,317.309 656.507,317.666C652.573,317.717 654.059,323.441 653.804,331.523C653.681,335.385 648.695,333.14 636.479,334.056C630.12,334.532 584.95,333.592 583.92,334.831C582.68,336.321 584.476,349.334 582.435,350.364C580.688,351.247 562.274,349.656 561.497,351.499C561.228,352.137 560.861,365.162 561.833,366.183C563.483,367.914 575.385,364.885 575.577,368.49C575.808,372.81 574.949,381.825 576.486,382.522C579.108,383.713 589.896,381.29 590.525,384.495C590.876,386.288 589.794,397.942 591.362,398.696C593.852,399.893 604.85,397.734 605.585,400.474C606.05,402.206 605.114,429.558 606.203,430.738C608.244,432.949 621.316,429.331 621.504,433.499C622.121,447.141 621.02,448.504 623.485,448.634C635.283,449.256 637.582,447.343 637.602,451.495C637.612,453.657 637.721,476.413 637.558,478.509C637.425,480.211 635.7,480.261 635.483,480.268C622.581,480.645 622.312,480.333 621.854,479.341C621.034,477.565 622.562,465.083 620.59,464.326C618.174,463.398 606.262,465.587 605.745,462.452C605.286,459.677 606.735,448.484 604.385,447.878C602.04,447.274 591.022,449 589.988,446.387C589.405,444.913 591.096,433.169 588.502,432.492C585.809,431.789 575.931,433.75 575.346,430.532C574.97,428.465 575.987,417.688 574.368,416.715C572.315,415.48 560.075,418.143 559.503,414.499C559.112,412.003 560.311,401.115 558.565,400.394C555.972,399.323 544.198,401.598 543.585,398.482C543.094,395.99 544.63,383.625 542.345,382.955C540.285,382.351 540.236,382.768 515.502,382.845C510.741,382.86 511.573,384.743 511.568,389.5C511.535,426.327 511.897,426.325 511.527,429.504C511.145,432.797 509.46,431.157 497.498,431.475C494.769,431.547 495.278,432.948 495.255,451.5C495.197,498.812 495.627,502.53 494.523,503.531C494.014,503.992 480.71,504.517 479.665,503.354C479.188,502.822 479.145,502.675 479.158,384.5C479.161,351.282 479.502,350.173 477.444,349.958C477.192,349.931 466.021,349.919 465.507,349.933C462.805,350.007 462.904,351.745 462.899,352.504C462.841,362.139 463.813,366.051 460.481,366.16C452.006,366.438 447.291,365.194 447.171,368.473C446.75,379.908 449.06,382.426 444.5,382.502C436.458,382.637 431.439,381.718 431.292,384.468C430.996,389.981 432.347,398.82 429.45,399.099C426.4,399.392 415.953,398.156 415.257,400.41C414.534,402.75 416.569,414.716 413.453,415.251C410.886,415.692 400.277,414.339 399.612,416.539C398.994,418.585 400.384,430.372 398.373,431.219C396.453,432.028 384.352,430.444 383.609,432.549C382.879,434.616 384.279,446.104 382.485,447.476C381.367,448.332 368.616,447.147 367.407,448.416C365.861,450.039 368.407,463.004 365.417,464.054C365.139,464.152 336.73,464.14 336.545,464.108C334.49,463.745 334.821,462.789 334.81,443.503C334.805,434.599 334.019,431.515 337.499,431.471C346.193,431.361 350.754,432.296 350.888,429.563C351.471,417.651 349.748,415.589 353.501,415.52C362.956,415.347 366.575,416.653 366.624,412.503C366.744,402.404 365.798,399.203 369.496,399.164C379.017,399.061 382.685,400.161 382.732,396.506C382.834,388.498 381.999,382.889 384.538,382.743C389.884,382.437 398.615,383.494 399.193,381.412C399.755,379.385 398.349,367.198 400.457,366.415C403.195,365.398 414.207,367.613 414.989,364.643C415.631,362.204 414.006,350.904 416.344,350.11C418.783,349.282 430.158,351.124 430.97,348.684C431.711,346.46 430.166,334.848 432.265,334.032C434.487,333.167 446.054,334.885 446.884,332.691C447.228,331.778 447.21,331.751 447.114,320.5C447.073,315.75 444.442,316.915 435.496,316.888C399.395,316.782 399.43,317.279 398.496,317.477C397.878,317.609 384.629,317.99 383.592,317.349C381.377,315.98 384.172,302.654 381.37,301.938C378.21,301.131 367.95,302.782 355.494,301.57C350.329,301.067 326.529,302.297 325.158,300.799C324.491,300.07 324.08,286.659 325.499,285.499C325.894,285.177 325.974,285.195 362.498,285.056C391.51,284.946 391.455,284.462 420.498,284.657C429.266,284.716 431.196,285.35 431.231,281.49C431.251,279.261 431.472,254.984 431.085,253.621C430.214,250.55 415.439,254.755 415.21,250.544C414.606,239.402 417.394,236.218 411.499,236.191C405.107,236.161 400.507,237.397 400.472,233.501C400.383,223.768 401.315,220.464 398.578,220.007C395.11,219.427 384.125,221.117 383.441,218.518C383.166,217.473 383.489,189.03 383.262,188.505C382.73,187.269 381.593,187.997 379.508,188.032C368.277,188.223 368.157,188.221 367.446,187.567C366.442,186.643 366.276,172.698 367.587,171.629C367.895,171.378 382.697,170.188 383.401,172.533C383.697,173.517 383.365,186.011 383.633,186.489C385.41,189.658 400.789,185.734 401.475,189.504C401.892,191.798 400.664,203.407 402.65,204.09C404.911,204.869 418.834,203.06 419.701,205.409C420.6,207.845 418.462,219.197 421.379,219.916C423.61,220.467 448.024,219.127 449.352,220.627C450.619,222.059 448.502,235.193 450.694,236.036C452.362,236.677 462.142,235.171 462.828,237.374C463.524,239.607 461.582,251.858 464.512,252.442C465.007,252.541 493.007,252.51 493.492,252.438C495.803,252.091 495.118,250.91 495.224,224.495C495.231,222.855 494.65,220.205 497.448,220.03C508.662,219.326 511.477,221.748 511.553,216.502C511.803,199.294 511.311,125.901 511.832,124.64C512.838,122.21 526.368,125.026 527.197,122.399C527.762,120.61 526.634,92.189 527.938,90.899C528.508,90.336 542.705,89.449 543.36,91.549C544.097,93.913 543.576,93.977 543.509,122.5C543.414,162.899 543.983,163.596 542.378,164.153C540.49,164.808 528.239,163.2 527.48,165.492C527.312,165.997 527.389,165.988 527.309,250.501C527.293,267.647 526.885,268.964 529.519,269.1C543.006,269.796 543.221,268.587 543.418,267.485C543.826,265.204 542.622,253.653 544.667,252.928C546.758,252.188 558.049,253.889 558.881,251.676C559.801,249.227 557.814,237.296 560.549,236.686C562.646,236.218 573.834,237.565 574.615,235.556C575.479,233.334 573.419,222.251 576.544,221.71C578.836,221.313 602.716,221.938 603.842,220.86C605.479,219.292 603.185,205.763 605.666,204.915C608.179,204.056 610.341,205.726 622.464,204.153C623.511,204.017 634.374,204.141 634.527,204.184C634.906,204.293 636.343,205.385 636.494,205.5Z" style="fill:rgb(235,232,207);"/>
        </g>
        <g transform="matrix(1.228516,0,0,1.228516,694.553679,71.694602)">
            <path d="M667.512,187.901C670.66,189.426 669.787,190.635 669.737,198.501C669.712,202.479 670.471,204.075 666.5,204.089C641.521,204.171 641.515,203.661 637.535,204.619C637.448,204.45 636.453,202.501 636.453,202.501C635.75,188.559 636.544,188.322 637.66,187.989C639.949,187.307 640.004,187.72 667.512,187.901Z" style="fill:rgb(235,232,207);"/>
        </g>
        <g transform="matrix(1.228516,0,0,1.228516,694.553679,71.694602)">
            <path d="M669.676,185.505C669.681,174.327 668.838,171.377 672.5,171.334C684.259,171.194 686.236,170.872 686.359,173.508C686.982,186.888 686.629,187.178 685.599,187.649C685.353,187.762 672.37,188.87 670.605,187.247C670.489,187.14 670.536,187.118 669.676,185.505Z" style="fill:rgb(235,232,207);"/>
        </g>
    </g>
</svg>
