<?xml version="1.0" encoding="UTF-8" standalone="no"?><!DOCTYPE svg PUBLIC "-//W3C//DTD SVG 1.1//EN" "http://www.w3.org/Graphics/SVG/1.1/DTD/svg11.dtd"><svg width="100%" height="100%" viewBox="0 0 410 335" version="1.1" xmlns="http://www.w3.org/2000/svg" xmlns:xlink="http://www.w3.org/1999/xlink" xml:space="preserve" xmlns:serif="http://www.serif.com/" style="fill-rule:evenodd;clip-rule:evenodd;stroke-linejoin:round;stroke-miterlimit:2;"><path d="M233.443,13.274c4.874,3.077 4.626,3.762 10.488,3.707c8.836,-0.084 2.248,13.381 10.907,16.226c9.053,2.975 9.841,-8.261 9.918,-9.348c0.68,-9.694 11.319,-7.097 21.724,-8.107c10.371,-1.008 2.986,-11.983 10.292,-14.234c12.133,-3.739 14.42,12.221 7.324,14.898c-7.709,2.908 -8.688,2.944 -10.029,11.094c-1.682,10.218 -13.615,2.527 -13.979,14.131c-0.34,10.858 14.82,8.55 34.858,8.315c8.981,-0.105 6.852,-3.707 9.414,-12.394c0.135,-0.458 0.885,-3.002 4.6,-3.798c12.607,-2.699 15.059,15.083 3.947,16.433c-11.824,1.436 -5.998,9.118 -10.676,16.464c-0.856,1.344 -2.121,2.411 -2.894,3.804c-7.173,12.929 19.27,21.786 21.405,3.215c1.163,-10.118 24.096,-9.681 25.283,-0.313c1.811,14.294 -14.128,6.708 -16.721,13.911c-1.427,3.964 -0.07,4.051 -1.15,7.979c-1.9,6.904 -7.539,3.029 -9.114,10.11c-2.937,13.203 10.38,10.241 15.091,14.2c5.851,4.917 6.165,4.437 13.918,4.944c9.671,0.633 12.146,16.702 6.637,18.879c-6.452,2.549 -6.86,1.965 -11.117,7.521c-5.016,6.547 -25.815,-9.329 -24.587,7.887c0.798,11.181 11.041,3.555 15.17,14.096c2.179,5.563 15.812,7.498 11.127,18.207c-4.56,10.423 -11.864,-9.623 -21.942,-7.393c-11.871,2.627 -0.809,15.214 0.045,16.187c-2.929,1.068 -5.858,2.136 -8.787,3.205c-4.497,-2.439 -4.327,-4.112 -9.301,-2.546c-7.707,2.427 -0.181,22.606 -14.165,19.608c-4.682,-1.004 -4.762,-7.292 -4.771,-8.04c-0.114,-8.969 0.191,-8.763 0.054,-17.843c-0.128,-8.48 -0.604,-9.127 -8.413,-12.288c-5.141,-2.081 -2.809,-3.692 -3.728,-9.138c-1.273,-7.537 -8.44,-6.24 -11.309,-6.439l-3.74,-4.101c0.292,-13.16 -4.21,-11.144 -10.919,-13.273c-6.293,-1.997 0.611,-14.801 -9.989,-16.354c-7.217,-1.058 -7.29,-2.056 -8.992,-9.217c-1.898,-7.986 -13.846,-7.732 -15.123,-0.029c-2.177,13.134 -9.742,6.295 -13.755,11.602c-4.001,5.291 1.079,6.782 -2.508,12.253c-2.328,3.551 -3.265,1.861 -9.652,2.765c-0.997,-0.584 -2.449,0.211 -3.446,-0.373c-0.491,-0.288 -0.38,-0.366 -5.125,-4.939c-1.276,-15.966 -7.4,-12.453 -23.279,-11.845c-14.765,0.565 -4.256,14.783 -14.422,17.003c-0.252,0.055 -12.329,-2.286 -11.5,8.898c0.549,7.408 5.141,7.672 8.163,7.952c9.035,0.837 7.591,3.631 8.623,9.676c-0.78,0.921 1.011,2.693 0.23,3.615c-0.507,0.598 -0.648,0.314 -8.813,4.274c-11.305,-0.903 -11.154,-0.651 -13.975,-1.378c-9.941,-2.563 0.105,-17.356 -14.274,-16.018c-8.927,0.83 -5.672,22.065 -5.945,45.128c-0.149,12.565 -12.621,7.905 -14.042,5.907c-4.243,-5.967 3.361,-26.354 -18.794,-13.158l-3.895,-3.867c0.811,-1.066 11.382,-14.962 -0.131,-16.736c-14.557,-2.244 -5.476,16.639 -17.593,15.655c-14.805,-1.202 -8.631,-17.983 -3.417,-19c10.308,-2.011 8.959,-4.635 10.9,-14.922c2.411,-12.783 -9.013,-4.67 -16.133,-13.052c-4.79,-5.639 -12.393,-1.573 -14.404,-7.496c-3.128,-9.207 -0.756,-10.282 8.571,-12.92c8.481,-2.399 5.62,-7.976 14.45,-9.077c7.908,-0.986 6.615,-4.516 14.329,-5.953c12.593,-2.345 14.311,-15.044 -0.354,-17.883c-7.217,-1.397 -5.747,-10.176 -6.162,-11.919c-2.504,-10.501 -13.644,0.17 -16.094,-10.168c-4.659,-19.659 16.297,-11.225 25.923,-10.12c8.64,0.992 5.933,8.672 14.459,7.386c12.004,-1.811 7.498,-32.271 7.505,-33.056c0.115,-12.4 12.459,-4.529 14.035,-14.168c1.396,-8.538 1.618,-9.732 10.15,-11.329c3.049,4.404 6.062,3.805 5.572,21.879c-0.503,18.555 13.178,13.558 14.284,3.479c2.057,-18.74 25.67,1.306 27.244,-17.546c0.761,-9.118 4.027,-7.221 13.196,-8.1c12.932,-1.239 4.93,-15.35 17.895,-15.583c15.81,-0.284 22.534,-2.761 21.43,12.965Z" style="fill:#0c0a13;"/><path d="M199.711,144.75c-8.055,6.814 -18.284,5.728 -14.238,18.28c2.013,6.245 14.187,5.115 15.18,-0.866c1.032,-6.211 -1.147,-7.314 4.002,-11.068c1.016,-0.741 2.612,-0.293 3.628,-1.034c6.386,-0.904 7.324,0.786 9.652,-2.765c3.586,-5.471 -1.494,-6.962 2.508,-12.253c4.013,-5.307 11.578,1.531 13.755,-11.602c1.277,-7.703 13.224,-7.957 15.123,0.029c1.702,7.16 1.775,8.159 8.992,9.217c10.6,1.553 3.696,14.357 9.989,16.354c6.709,2.129 11.211,0.113 10.919,13.273c-0.579,0.351 -1.611,3.054 -6.824,4.128c-6.17,1.271 -4.743,3.315 -9.258,7.686c-1.051,1.017 -2.152,-0.939 -16.123,8.613c-1.648,1.127 -12.516,0.443 -10.952,11.634c0.926,6.624 7.659,6.273 7.923,6.34c2.417,-1.923 3.657,-7.144 14.322,-9.056c8.25,-1.479 5.676,-6.665 13.964,-8.433c11.249,-2.399 6.961,-10.352 8.021,-13.799c0.394,-1.282 2.272,-1.73 2.666,-3.012c2.869,0.199 10.036,-1.098 11.309,6.439c0.92,5.446 -1.412,7.058 3.728,9.138c7.809,3.16 8.285,3.808 8.413,12.288c0.137,9.08 -0.167,8.873 -0.054,17.843c0.009,0.748 0.089,7.036 4.771,8.04c13.985,2.998 6.458,-17.181 14.165,-19.608c4.974,-1.566 4.804,0.107 9.301,2.546c4.096,9.93 5.456,32.927 -5.505,33.14c-1.209,0.023 -12.753,0.248 -9.978,11.351c0.373,1.491 3.398,1.802 3.193,3.325c-0.293,2.175 -10.101,2.487 -11.004,2.516c-7.036,0.224 -6.8,0.66 -13.991,1.357c-5.108,23.087 4.544,31.6 -7.248,30.363c-14.879,-1.561 -6.117,14.371 -17.65,16.216c-1.957,0.313 -9.232,-1.258 -10.136,6.525c-1.438,12.374 -5.961,9.594 -18.345,9.581c-23.674,-0.014 -47.348,-0.027 -71.022,-0.041l-5.134,-5.728c-0.959,-4.353 1.631,-8.937 -16.004,-11.203c-0.48,-1.393 -2.15,-2.16 -2.63,-3.553c-0.754,-2.189 -0.406,-4.632 -0.962,-6.88c-1.032,-4.173 -2.529,-2.791 -11.223,-5.522c-9.307,-10.377 -2.68,-21.048 -4.629,-26.011c-1.611,-4.102 -4.863,-4.409 -5.423,-4.462c-10.896,-1.029 -15.422,4.151 -17.511,-6.583c-0.399,-2.048 1.574,-9.465 -7.454,-10.339c-5.401,-0.522 -5.1,-1.003 -9.974,-3.713c0.494,-10.528 2.556,-10.376 -0.281,-28.634c22.156,-13.196 14.551,7.191 18.794,13.158c1.42,1.997 13.893,6.658 14.042,-5.907c0.273,-23.063 -2.983,-44.297 5.945,-45.128c14.379,-1.338 4.333,13.456 14.274,16.018c2.821,0.727 2.67,0.474 13.975,1.378c1.239,0.71 2.434,-1.11 5.919,3.393c4.343,5.611 4.523,5.313 10.936,8.155c13.589,6.022 -8.728,5.912 -9.632,5.908c-11.593,-0.057 -10.069,23.003 7.191,17.891c7.082,-2.097 0.844,-7.569 9.467,-19.256c4.429,-6.003 3.057,-15.999 -2.478,-17.073c-6.824,-1.325 -7.418,-0.15 -10.476,-3.468c-0.94,-1.02 -1.404,-2.419 -2.344,-3.439c-1.032,-6.045 0.413,-8.839 -8.623,-9.676c-3.022,-0.28 -7.614,-0.544 -8.163,-7.952c-0.829,-11.183 11.248,-8.843 11.5,-8.898c10.166,-2.22 -0.343,-16.438 14.422,-17.003c15.879,-0.608 22.003,-4.121 23.279,11.845Z" style="fill:#e7d6a8;"/><path d="M334.594,203.1c2.929,-1.068 5.858,-2.136 8.787,-3.205c10.193,2.666 9.049,5.124 9.071,15.703c0.028,13.404 3.936,18.045 -9.168,20.665c-11.369,2.273 -2.12,15.049 -10.973,17.042c-8.805,1.982 -8.362,3.518 -10.547,11.857c-1.074,4.102 -2.485,2.823 -9.555,5.375c-4.128,1.49 -2.137,2.944 -3.235,9.119c-1.733,9.752 -11.002,4.191 -11.988,13.975c-1.626,16.132 -17.69,3.904 -18.091,10.95c-0.026,0.458 4.155,0.882 3.368,6.718c-1.766,13.106 -20.022,-0.311 -19.704,14.298c0.293,13.454 -18.824,8.104 -82.515,8.808c-11.036,0.122 -11.852,-1.714 -13.645,-12.487c2.17,-1.495 4.339,-2.99 6.509,-4.486c23.674,0.014 47.348,0.027 71.022,0.041c12.384,0.013 16.907,2.793 18.345,-9.581c0.904,-7.782 8.18,-6.212 10.136,-6.525c11.533,-1.845 2.772,-17.777 17.65,-16.216c11.792,1.237 2.14,-7.276 7.248,-30.363c7.191,-0.698 6.955,-1.133 13.991,-1.357c0.903,-0.029 10.71,-0.341 11.004,-2.516c0.205,-1.523 -2.82,-1.834 -3.193,-3.325c-2.775,-11.103 8.769,-11.327 9.978,-11.351c10.961,-0.213 9.601,-23.21 5.505,-33.14Z" style="fill:#0c0a13;"/><path d="M233.296,284.219c-43.822,-0.038 -47.719,1.87 -49.861,-8.307c-2.472,-11.746 -15.504,-2.187 -16.349,-14.18c-0.67,-9.506 14.388,-9.67 16.079,-3.423c1.906,7.04 0.301,9.656 7.544,9.917c48.467,1.75 49.875,-0.034 52.482,-3.337c0.594,-0.753 3.042,-15.38 14.921,-10.253c3.074,1.326 6.974,13.893 -3.388,15.224c-6.676,0.858 -9.355,-0.661 -9.329,6.117c0.038,9.829 -7.93,8.083 -12.1,8.242Z" style="fill:#0c0a13;"/><path d="M378.73,280.394c9.312,-1.538 13.061,1.347 13.904,-8.075c1.487,-16.618 19.645,-9.224 16.716,3.392c-2.301,9.914 -15.434,2.899 -16.057,14.386c-0.849,15.638 10.929,10.669 14.229,13.826c4.619,4.419 2.153,21.145 -11.481,15.492c-4.932,-2.045 -1.021,-19.02 -17.258,-15.337c-2.386,0.541 -6.22,3.294 -6.981,7.316c-1.577,8.338 -2.246,10.182 -10.637,8.993c-8.936,-1.267 -9.927,-17.518 3.79,-18.16c10.119,-0.474 5.258,-5.479 5.426,-15.625c3.482,-4.026 3.287,-4.147 8.349,-6.206Z" style="fill:#0c0a13;"/><path d="M91.964,233.437c4.874,2.71 4.574,3.191 9.974,3.713c9.028,0.873 7.055,8.291 7.454,10.339c2.089,10.734 6.616,5.554 17.511,6.583c0.559,0.053 3.812,0.36 5.423,4.462c1.949,4.963 -4.678,15.634 4.629,26.011c-0.981,1.284 -2.659,0.156 -5.385,8.92c-3.515,-4.464 -2.693,-5.471 -8.273,-7.049c-5.938,-1.679 -4.567,-9.757 -4.743,-10.362c-1.671,-5.741 -6.944,-5.209 -8.839,-7.749c-3.544,-4.751 3.58,-12.749 -11.173,-14.688c-7.977,-1.049 -2.547,-8.034 -10.784,-16.256l4.206,-3.923Z" style="fill:#0c0a13;"/><path d="M279.219,162.314l7.94,1.428c-0.394,1.282 -6.472,4.403 -6.866,5.685c-1.06,3.446 3.228,11.399 -8.021,13.799c-8.288,1.768 -5.714,6.954 -13.964,8.433c-10.665,1.912 -11.905,7.133 -14.322,9.056c-0.264,-0.067 -6.997,0.283 -7.923,-6.34c-1.564,-11.19 9.304,-10.507 10.952,-11.634c13.972,-9.553 15.073,-7.596 16.123,-8.613c4.515,-4.37 3.088,-6.415 9.258,-7.686c5.213,-1.074 6.244,-3.777 6.824,-4.128Z" style="fill:#0c0a13;"/><path d="M165.248,173.76c1.047,1.082 1.564,2.566 2.612,3.648c3.407,3.52 4.069,2.274 11.671,3.679c6.167,1.14 9.962,12.44 5.027,18.808c-9.607,12.398 -1.074,18.359 -8.964,20.584c-19.231,5.423 -24.777,-19.893 -11.861,-19.833c1.007,0.005 23.397,2.046 8.257,-4.342c-7.144,-3.015 -8.17,-4.623 -13.009,-10.575c-3.883,-4.777 -1.915,-2.846 -3.295,-3.599c9.097,-4.201 9.255,-3.9 9.819,-4.534c0.87,-0.977 -1.126,-2.857 -0.257,-3.834Z" style="fill:#0c0a13;"/><path d="M16.783,276.138c9.028,-0.555 13.638,2.508 15.281,-10.721c1.726,-13.9 23.141,-2.799 14.814,8.089c-4.865,6.362 -13.526,0.339 -15.594,5.896c-1.877,5.045 6.279,9.67 -7.407,16.761c-2.387,0.111 -4.775,0.222 -7.162,0.333c-7.523,-9.018 -5.202,-10.043 -5.212,-13.648c1.76,-2.236 3.52,-4.473 5.28,-6.709Z" style="fill:#0c0a13;"/><path d="M87.788,200.936l3.895,3.867c2.837,18.258 0.775,18.105 0.281,28.634l-4.206,3.923c-10.486,-1.574 -10.055,-4.086 -10.113,-14.718c-0.078,-14.214 -3.967,-19.292 10.143,-21.706Z" style="fill:#0c0a13;"/><path d="M250.317,208.437c4.032,-5.972 3.766,-6.228 4.349,-6.442c1.066,-0.392 1.042,-0.139 14.073,-1.897c13.799,-1.861 11.644,6.662 7.134,8.35c-1.767,0.661 -3.73,0.791 -5.423,1.623c-2.295,1.127 -2.885,8.614 -8.612,9.845c-10.109,2.173 -10.741,-1.037 -11.521,-11.479Z" style="fill:#0c0a13;"/><path d="M216.94,240.046c-0.246,1.253 0.833,2.532 0.588,3.786c-1.169,5.965 -15.526,8.674 -15.388,-3.435c0.018,-1.622 0.211,-18.564 3.374,-19.995c2.708,-1.225 6.336,0.309 7.063,1.848c0.626,1.325 -0.725,1.559 4.363,17.796Z" style="fill:#0c0a13;"/><path d="M151.77,300.5c17.635,2.266 15.045,6.851 16.004,11.203c-3.991,3.703 -3.814,3.73 -9.001,5.93c-9.397,-0.503 -9.371,-0.305 -10.149,-0.543c-1.151,-0.352 -1.942,-0.594 -7.421,-13.092c1.406,0.261 2.026,-2.835 3.433,-2.575c6.351,1.178 3.847,4.071 4.315,4.011c3.363,-0.435 -0.612,-4.49 2.82,-4.935Z" style="fill:#0c0a13;"/><path d="M387.666,284.114c-6.948,2.518 -6.681,2.667 -11.46,7.589c-5.651,-4.114 -5.332,-4.323 -12.562,-5.988c-15.978,-3.678 -9.051,-27.706 9.891,-20.773c5.951,2.178 3.861,3.618 4.655,9.313c1.22,8.747 8.465,9.214 9.476,9.86Z" style="fill:#0c0a13;"/><path d="M201.662,141.313c5.357,5.273 5.231,5.363 5.785,5.695c1.125,0.674 2.765,-0.243 3.889,0.43c-1.147,0.854 -1.299,1.438 -2.446,2.292c-5.812,4.329 -5.002,4.501 -6.167,11.662c-1.121,6.896 -17.337,8.122 -19.609,0.922c-4.567,-14.472 9.454,-13.144 18.546,-21.001Z" style="fill:#0c0a13;"/><path d="M136.954,284.545c8.694,2.732 10.191,1.35 11.223,5.522c0.556,2.248 0.208,4.69 0.962,6.88c0.48,1.393 2.15,2.16 2.63,3.553c-3.432,0.444 0.543,4.499 -2.82,4.935c-0.467,0.061 2.037,-2.833 -4.315,-4.011c-1.406,-0.261 -2.026,2.835 -3.433,2.575c-2.209,-1.521 -5.21,-1.596 -7.419,-3.117c0,0 -2.037,-6.823 -2.214,-7.416c2.726,-8.764 4.404,-7.636 5.385,-8.92Z" style="fill:#0c0a13;"/><path d="M22.346,297.021c-0.603,2.547 1.872,10.367 -11.279,11.223c-19.912,1.296 -10.258,-34.045 7.712,-17.727c0.931,0.846 2.665,0.984 3.25,2.052c0.731,1.334 -0.415,3.118 0.317,4.452Z" style="fill:#0c0a13;"/><path d="M16.877,268.416c-1.633,2.548 -3.266,5.096 -4.898,7.645c-10.338,-0.46 -13.227,-1.245 -11.521,-11.303c0.997,-5.875 7.88,-5.741 7.953,-5.747c7.642,-0.635 7.081,1.946 8.465,9.406Z" style="fill:#0c0a13;"/><path d="M24.606,296.537c16.087,-31.618 29.347,7.726 17.217,11.881c-12.617,4.322 -13.956,0.597 -17.217,-11.881Z" style="fill:#0c0a13;"/><path d="M132.359,17.936c2.339,-9.045 3.228,-9.85 3.889,-10.448c7.057,-6.391 16.591,7.408 10.248,13.788c-6.206,6.243 -7.366,2.313 -14.138,-3.34Z" style="fill:#0c0a13;"/><path d="M229.728,16.731c4.967,7.796 7.701,9.44 0.689,15.28c-6.017,5.012 -20.184,-10.551 -0.689,-15.28Z" style="fill:#0c0a13;"/><path d="M10.299,263.693c4.492,8.853 4.092,8.979 4.851,9.561c2.893,2.22 4.116,-0.147 7.195,2.216c-3.7,3.578 -7.401,7.156 -11.101,10.734c-0.988,-0.761 0.027,-1.009 -11.245,-10.281c3.433,-4.077 6.866,-8.154 10.299,-12.23Z" style="fill:#0c0a13;"/><path d="M167.774,311.703l5.134,5.728c-2.17,1.495 -4.339,2.99 -6.509,4.486c-2.542,-1.428 -5.084,-2.856 -7.626,-4.284c5.187,-2.2 5.011,-2.227 9.001,-5.93Z" style="fill:#0c0a13;"/></svg>