<?xml version="1.0" encoding="UTF-8" standalone="no"?><!DOCTYPE svg PUBLIC "-//W3C//DTD SVG 1.1//EN" "http://www.w3.org/Graphics/SVG/1.1/DTD/svg11.dtd"><svg width="100%" height="100%" viewBox="0 0 398 317" version="1.1" xmlns="http://www.w3.org/2000/svg" xmlns:xlink="http://www.w3.org/1999/xlink" xml:space="preserve" xmlns:serif="http://www.serif.com/" style="fill-rule:evenodd;clip-rule:evenodd;stroke-linejoin:round;stroke-miterlimit:2;"><path d="M66.416,207.863c-9.021,-2.414 -8.964,-2.397 -9.742,-2.607c-5.729,-1.546 -3.213,-3.756 -4.384,-11.887c-1.215,-8.441 -4.434,-5.756 -12.87,-6.719c-7.594,-0.867 -9.163,-16.332 0.115,-18.129c16.713,-3.236 6.2,-16.596 3.353,-17.21c-14.322,-3.093 -11.054,-10.905 -10.633,-25.564c0.286,-9.953 4.302,-7.454 14.28,-8.272c16.176,-1.326 1.128,-28.222 11.367,-32.989c7.519,-3.501 5.664,-5.25 7.373,-11.804c1.851,-7.102 7.28,-4.51 8.128,-14.578c0.796,-9.446 5.721,-6.861 8.486,-7.847c10.195,-3.637 0.309,-14.538 10.973,-15.905c8.911,-1.142 8.894,-2.727 10.5,-11.531c0.894,-4.899 13.112,-5.35 14.337,-5.395c12.682,-0.468 6.069,-11.769 10.801,-15.544c1.572,-1.254 44.776,-4.722 46.619,2.907c0.636,2.632 0.413,5.425 1.066,8.053c1.841,7.411 4.59,4.006 12.333,4.366c11.445,0.533 15.848,2.841 16.578,-8.681c0.592,-9.343 4.878,-8.503 40.314,-7.943c14.259,0.225 5.109,15.863 14.328,16.949c12.897,1.52 18.757,-3.94 20.013,8.947c0.933,9.574 9.454,7.923 11.22,8.375c4.046,1.035 4.041,10.752 4.946,12.328c3.352,5.836 11.992,-1.259 13.277,11.14c1.12,10.805 5.202,7.76 11.079,9.645c8.61,2.762 2.117,42.823 6.493,47.367c1.169,1.214 20.253,2.21 21.536,3.306c2.401,2.052 2.221,16.313 2.203,17.743c-0.19,15.034 -11.66,9.85 -14.247,17.105c-5.982,16.778 11.118,12.163 11.977,21.959c1.724,19.653 -21.217,6.249 -22.688,17.411c-0.315,2.388 0.221,4.851 -0.192,7.224c-1.28,7.369 -5.914,2.958 -13.925,10.537c-1.177,10.848 -0.177,10.735 -0.356,21.51c-0.211,12.716 -14.9,3.961 -16.815,14.176c-1.474,7.86 -1.93,8.931 -9.96,9.667c-10.087,0.924 -6.693,10.509 -8.751,14.041c-3.657,6.274 -14.111,-3.705 -16.23,11.89c-1.946,14.325 -18.713,-0.15 -21.057,14.217c-2.12,12.995 -8.729,9.62 -28.38,9.49c-61.007,-0.407 -65.705,2.035 -66.95,-6.015c-2.397,-15.502 -8.417,-10.091 -14.701,-10.534c-11.061,-0.778 -3.678,-13.55 -13.883,-15.982c-6.879,-1.64 -7.818,-1.72 -9.136,-8.759c-2.602,-13.896 -15.226,-4.618 -19.411,-10.882c-3.7,-5.538 1.814,-12.16 -10.908,-12.813c-9.148,-0.469 -6.058,-5.324 -5.817,-29.743c0.987,-0.861 1.859,-1.849 2.846,-2.71c6.646,-5.795 13.982,0.296 14.259,-11.435c0.104,-4.384 1.236,-14.598 -3.981,-13.655c-0.998,0.181 -0.724,0.556 -11.348,5.656c-1.124,0.539 -2.106,1.011 -4.682,14.859c-0.261,1.4 0.506,2.866 0.245,4.266Z" style="fill:#0c0a13;"/><path d="M212.018,161.368c1.983,5.716 2.395,5.413 7.32,8.605c5.594,3.627 -2.241,18.493 11.84,18.66c15.961,0.189 3.376,-17.008 14.401,-19.441c15.137,-3.339 4.778,-12.867 10.881,-16.9c9.999,-6.609 5.045,13.857 13.75,16.033c12.102,3.025 7.838,12.478 8.134,28.381c0.202,10.833 12.441,8.502 10.008,21.397c-1.887,10.006 -16.147,-0.184 -16.224,14.026c-0.026,4.769 0.119,9.538 0.138,14.307c0.057,14.364 -13.636,5.086 -15.367,14.365c-1.526,8.178 0.352,11.111 -7.859,11.888c-7.478,0.707 -10.291,-1.908 -11.419,5.553c-1.11,7.347 1.038,10.158 -6.455,10.854c-1.215,0.113 -81.394,-0.092 -81.635,-0.125c-11.181,-1.515 -2.728,-12.655 -10.04,-15.376c-2.785,-1.036 -12.163,0.253 -14.141,-5.97c-0.709,-2.23 -0.29,-4.684 -0.746,-6.979c-1.747,-8.791 -15.302,0.49 -15.733,-14.133c-0.431,-14.632 3.099,-20.89 -8.819,-23.063c-1.115,-0.203 -9.19,-1.675 -6.802,-12.423c0.087,-0.39 0.62,-2.79 2.625,-4.247c8.602,-6.254 4.901,-8.322 6.485,-31.503c0.571,-8.363 8.861,-3.946 10.454,-14.113c0.154,-0.981 2.793,-17.824 10.668,-6.347c3.261,4.753 -1.234,12.058 8.23,13.93c15.085,2.985 3.237,16.221 11.34,19.413c14.526,5.722 12.904,-15.364 13.219,-16.379c0.1,-0.323 7.573,-13.025 1.075,-18.584c-4.279,-3.66 -26.08,4.054 -27.971,-9.674c-1.718,-12.476 13.51,-5.206 14.05,-17.74c0.388,-9.009 -3.066,-25.358 9.637,-25.416c74.751,-0.343 75.817,-2.706 80.545,1.674c4.93,4.567 -2.451,29.9 7.938,32.002c9.525,1.927 11.25,4.017 7.565,13.073c-1.769,4.345 -6.552,4.48 -7.234,4.5c-22.788,0.643 -22.782,-0.264 -24.738,0.038c-6.397,0.99 -4.232,3.399 -5.12,9.717Z" style="fill:#e7d6a8;"/><path d="M381.531,264.031c4.053,3.515 3.899,3.707 9.175,4.654c8.391,1.506 4.547,13.091 4.308,13.605c-2.961,6.354 -12.261,-1.778 -13.611,10.425c-0.902,8.158 -8.672,6.14 -11.635,7.94c-5.679,3.45 -0.983,19.466 -15.064,14.939c-8.499,-2.732 1.344,-13.446 -9.97,-15.775c-6.269,-1.291 -6.487,-1.521 -9.097,-7.523c2.028,-4.667 1.881,-4.623 5.58,-8.155c7.258,1.108 7.958,1.362 9.972,8.481c1.496,5.287 12.487,11.598 14.17,-0.096c1.829,-12.708 7.508,-6.576 11.331,-8.199c0.267,-0.114 0.131,-0.232 2.344,-2.773c5.379,-6.176 1.145,-6.881 -5.68,-11.629c4.712,-2.198 4.72,-1.951 8.178,-5.895Z" style="fill:#0c0a13;"/><path d="M355.416,254.944c2.293,0.648 4.845,-1.021 7.138,-0.373c3.105,0.877 1.686,2.095 3.249,9.64c1.086,5.245 2.82,3.68 7.55,5.714c6.826,4.748 11.059,5.453 5.68,11.629c-2.213,2.541 -2.077,2.659 -2.344,2.773c-3.823,1.623 -9.502,-4.509 -11.331,8.199c-1.683,11.695 -12.675,5.384 -14.17,0.096c-2.014,-7.119 -2.713,-7.373 -9.972,-8.481c-4.512,-5.519 -6.588,-6.294 -2.097,-11.922c3.406,-4.268 4.681,-1.711 9.482,-4.046c2.548,-1.239 1.242,-5.86 6.815,-13.23Z" style="fill:#e7d6a8;"/><path d="M167.233,240.351c30.448,0.12 30.302,0.085 46.228,-0.146c5.089,2.171 4.968,2.159 9.107,5.792c-3.79,12.178 -7.18,9.534 -19.827,9.736c-25.163,0.404 -46.324,1.787 -43.657,-9.3c1.295,-5.381 3.034,-3.842 8.149,-6.082Z" style="fill:#0c0a13;"/><path d="M219.798,29.825l4.174,4.204c-0.632,1.139 -1.641,2.04 -2.273,3.179c-2.642,4.761 0.012,12.002 -8.388,13.053c-17.62,2.205 -0.549,32.008 -14.066,33.225c-13.956,1.256 -6.685,-17.504 -11.865,-20.524c-5.96,-3.475 -6.724,-2.357 -10.991,-7.978c8.547,-8.63 10.68,-4.22 19.225,-3.057c2.388,0.325 5.056,1.77 7.2,0.669c0.157,-0.081 0.088,-0.043 2.391,-12.222c1.248,-6.601 8.524,-4.448 14.592,-10.548Z" style="fill:#0c0a13;"/><path d="M365.917,29.921c1.086,-8.257 -1.329,-11.274 7.055,-12.415c13.737,-1.87 3.983,15.403 17.81,16.886c9.231,0.99 9.377,14.642 -0.023,15.66c-3.531,0.382 -3.046,1.36 -6.226,2.78c-0.936,1.84 -1.873,3.679 -2.809,5.519c-1.279,5.207 0.558,7.077 -4.663,8.376c-10.39,2.586 -10.901,-1.201 -11.457,-11.96l3.905,-4.258c1.234,-0.238 14.232,-2.741 12.114,-10.007c-2.159,-7.406 -4.407,-5.134 -12.082,-6.382l-3.623,-4.197Z" style="fill:#0c0a13;"/><path d="M350.483,246.342c1.183,1.691 -1.135,1.983 0.045,3.67c1.211,1.731 2.083,-0.007 3.562,1.485c0.866,0.874 0.459,2.572 1.325,3.447c-5.573,7.37 -4.267,11.991 -6.815,13.23c-4.801,2.335 -6.075,-0.222 -9.482,4.046c-4.491,5.628 -2.415,6.403 2.097,11.922c-3.698,3.532 -3.552,3.488 -5.58,8.155c-0.736,-0.957 -0.778,-2.333 -1.514,-3.29c-3.667,-4.769 -15.406,-3.245 -12.867,-14.061c1.917,-8.169 9.499,-3.696 13.82,-10.508c0.344,-0.543 -1.324,-0.951 1.841,-7.823c0.93,-2.019 3.938,-2.673 4.34,-2.76c6.326,-1.374 5.368,-2.716 9.226,-7.512Z" style="fill:#0c0a13;"/><path d="M15.849,12.433c2.243,-8.928 0.395,-13.045 9.578,-11.978c0.624,0.073 5.452,0.633 6.176,4.859c0.389,2.27 -0.222,4.753 0.67,6.876c4.001,9.525 13.142,0.199 15.887,10.179c3.55,12.911 -2.963,12.201 -16.299,11.13c-0.257,-9.791 -0.386,-9.757 -0.396,-10.606c-2.513,-6.848 -2.093,-7.242 -2.707,-7.377c-2.423,-0.53 -0.822,3.102 -3.341,2.55c-1.15,-0.648 -2.759,0.018 -3.909,-0.63c0,0 -5.207,-4.604 -5.66,-5.004Z" style="fill:#0c0a13;"/><path d="M350.483,246.342c2.174,-9.384 3.652,-11.6 12.563,-8.16c0.43,0.166 2.965,1.144 3.473,4.591c0.351,2.377 -0.382,4.906 0.335,7.199c0.093,0.299 0.368,-0.038 3.108,2.375c0.408,0.359 0.542,-0.33 6.437,2.164c5.485,2.321 4.033,3.67 5.131,9.519c-3.458,3.943 -3.466,3.697 -8.178,5.895c-4.73,-2.034 -6.464,-0.468 -7.55,-5.714c-1.563,-7.545 -0.144,-8.763 -3.249,-9.64c-2.293,-0.648 -4.845,1.021 -7.138,0.373c-0.866,-0.874 -0.459,-2.572 -1.325,-3.447c-1.479,-1.492 -2.351,0.246 -3.562,-1.485c-1.181,-1.687 1.138,-1.979 -0.045,-3.67Z" style="fill:#0c0a13;"/><path d="M305.87,206.142c-10.811,-1.43 -13.623,-2.305 -11.727,-13.086c0.255,-1.449 2.864,-0.503 5.959,-17.395c1.663,-9.074 10.199,-7.546 10.483,-0.46c0.081,2.015 0.896,22.425 -0.324,25.204c-0.232,0.529 -0.325,0.425 -4.39,5.737Z" style="fill:#0c0a13;"/><path d="M273.923,117.239c-1.748,1.146 -2.081,-0.832 -3.812,0.302c-1.514,0.992 -0.012,1.749 -1.385,3.103c-0.846,0.835 -2.586,0.481 -3.249,1.467c-0.702,1.046 0.434,2.724 -0.268,3.769c-2.246,-4.375 -1.117,-5.386 -5.585,-7.553c-7.851,-3.808 -8.414,-5.321 -6.497,-27.923c0.576,-6.793 10.641,-7.103 11.827,0.093c2.377,14.42 -5.818,19.858 8.968,26.742Z" style="fill:#0c0a13;"/><path d="M105.603,125.754c2.548,-9.267 5.341,-8.194 6.429,-17.626c1.343,-11.639 12.127,-8.159 11.168,3.383c-1.264,15.208 2.437,21.346 -12.794,22.071c-1.601,-2.61 -3.201,-5.219 -4.802,-7.829Z" style="fill:#0c0a13;"/><path d="M66.416,207.863c0.261,-1.4 -0.506,-2.866 -0.245,-4.266c2.576,-13.847 -1.606,-19.657 -1.332,-20.873c2.892,-12.833 16.364,-14.927 17.362,-15.107c5.217,-0.943 10.715,32.468 10.612,36.852c-0.277,11.731 -14.244,-2.092 -20.89,3.702c-0.987,0.861 -1.859,1.849 -2.846,2.71l-2.66,-3.018Z" style="fill:#0c0a13;"/><path d="M190.773,200.271c4.522,16.573 5.292,16.337 5.024,17.791c-0.164,0.89 -6.485,15.483 -10.735,-3.58c-0.42,-1.882 -10.299,-16.053 -5.404,-23.517c0.636,-0.97 9.33,-10.873 11.115,9.306Z" style="fill:#0c0a13;"/><path d="M219.798,29.825c0.513,-0.886 0.374,-5.963 7.844,-6.695c15.623,-1.532 20.332,-4.893 24.536,10.381c-2.092,0.33 -1.75,-1.099 -3.706,-0.79c-1.958,0.309 -1.24,1.348 -3.002,1.849c-0.862,0.245 -0.807,0.133 -21.498,-0.54l-4.174,-4.204Z" style="fill:#0c0a13;"/><path d="M16.581,26.353c0.719,1.082 0.237,2.696 0.956,3.778c2.763,4.156 2.941,4.86 7.801,3.905c3.264,-0.642 3.184,-0.262 6.523,-0.538c0.072,1.387 0.792,15.192 -3.294,17.05c-10.615,4.829 -12.056,-5.457 -12.21,-6.555c-0.814,-5.812 -1.568,-5.381 -5.218,-9.909c1.814,-2.578 3.628,-5.155 5.442,-7.733Z" style="fill:#0c0a13;"/><path d="M130.348,30.083c0.626,-1.502 -1.341,-6.846 8.538,-7.204c12.758,-0.462 17.789,-2.799 20.179,7.183c-10.208,7.684 -11.232,4.466 -23.908,4.548c-1.603,-1.509 -3.206,-3.018 -4.809,-4.527Z" style="fill:#0c0a13;"/><path d="M365.917,29.921l3.623,4.197c-2.54,5.264 -3.829,4.88 -3.126,9.993c0,0 2.847,5.884 3.095,6.396l-3.905,4.258c-11.355,-7.697 -19.866,-5.595 -14.083,-17.931c1.452,-3.098 9.676,-2.832 10.933,-3.581c1.376,-0.82 2.087,-2.512 3.463,-3.332Z" style="fill:#0c0a13;"/><path d="M15.849,12.433c0.453,0.4 5.66,5.004 5.66,5.004c1.15,0.648 2.759,-0.018 3.909,0.63c5.392,4.704 5.599,4.4 6.048,4.826c0.01,0.849 0.139,0.815 0.396,10.606c-3.339,0.275 -3.259,-0.104 -6.523,0.538c-4.86,0.955 -5.038,0.251 -7.801,-3.905c-0.719,-1.082 -0.237,-2.696 -0.956,-3.778c-0.561,-1.085 0.185,-2.561 -0.375,-3.646c-0.279,-0.541 -0.363,-0.431 -4.896,-5.819c1.513,-1.485 3.026,-2.97 4.539,-4.455Z" style="fill:#e7d6a8;"/><path d="M11.31,16.888c4.533,5.388 4.617,5.279 4.896,5.819c0.561,1.085 -0.185,2.561 0.375,3.646c-1.814,2.578 -3.628,5.155 -5.442,7.733c-2.334,-0.166 -10.654,1.998 -11.106,-7.69c-0.403,-8.639 2.941,-7.008 11.278,-9.508Z" style="fill:#0c0a13;"/><path d="M221.52,232.4c5.879,-18.794 21.97,-0.351 13.43,7.261c-0.466,0.416 -0.558,0.129 -7.611,1.756c-3.811,-4.056 -3.602,-3.984 -5.819,-9.017Z" style="fill:#0c0a13;"/><path d="M105.603,125.754c1.601,2.61 3.201,5.219 4.802,7.829c-1.302,1.59 -10.659,18.41 -18.538,10.725c-1.901,-1.854 -4.114,-9.478 4.529,-10.165c9.62,-0.764 7.919,-6.517 9.207,-8.388Z" style="fill:#0c0a13;"/><path d="M159.278,232.349c-10.156,21.824 -20.471,-1.784 -12.844,-6.415c9.251,-5.618 12.515,5.315 12.844,6.415Z" style="fill:#0c0a13;"/><path d="M369.541,34.118c7.675,1.249 9.923,-1.023 12.082,6.382c2.118,7.266 -10.879,9.769 -12.114,10.007c-0.248,-0.512 -3.095,-6.396 -3.095,-6.396c-0.703,-5.113 0.586,-4.729 3.126,-9.993Z" style="fill:#e7d6a8;"/><path d="M273.923,117.239c5.242,2.524 5.272,2.891 6.04,8.502c-8.141,16.578 -13.078,5.437 -14.754,0.14c0.702,-1.046 -0.434,-2.724 0.268,-3.769c0.663,-0.986 2.403,-0.633 3.249,-1.467c1.373,-1.355 -0.13,-2.111 1.385,-3.103c1.731,-1.134 2.064,0.844 3.812,-0.302Z" style="fill:#0c0a13;"/><path d="M167.245,34.674c6.838,2.797 9.922,2.217 7.829,9.465c-1.362,4.718 -2.801,3.236 -7.493,5.326c-4.669,-2.23 -6.097,-0.888 -7.255,-5.382c-1.521,-5.903 1.463,-4.932 6.919,-9.409Z" style="fill:#0c0a13;"/><path d="M287.78,134.037c15.383,6.172 1.458,17.947 -5.588,11.696c-6.782,-6.017 -2.657,-8.034 5.588,-11.696Z" style="fill:#0c0a13;"/><path d="M130.348,30.083c1.603,1.509 3.206,3.018 4.809,4.527c-2.254,2.642 -2.517,2.251 -4.331,5.077c-5.286,8.238 -17.331,3.467 -10.61,-3.601c1.756,-1.847 4.137,-2.344 4.541,-2.428c1.173,-0.245 2.583,0.485 3.592,-0.161c1.111,-0.711 0.887,-2.704 1.998,-3.415Z" style="fill:#0c0a13;"/><path d="M252.178,33.51c21.853,3.706 8.509,12.588 7.341,12.668c-7.063,0.484 -7.316,-11.497 -7.341,-12.668Z" style="fill:#0c0a13;"/><path d="M170.715,62.632l0.136,6.467c-0.823,0.008 -9,0.085 -10.259,-0.786c-15.84,-10.969 9.212,-5.866 10.122,-5.681Z" style="fill:#0c0a13;"/><path d="M221.52,232.4c2.217,5.033 2.008,4.961 5.819,9.017c-1.59,1.527 -3.181,3.053 -4.771,4.58c-4.139,-3.633 -4.018,-3.621 -9.107,-5.792c2.494,-1.587 2.695,-1.019 4.801,-3.055c2.161,-2.089 1.588,-2.315 3.258,-4.75Z" style="fill:#0c0a13;"/><path d="M25.417,18.067c2.519,0.552 0.918,-3.081 3.341,-2.55c0.614,0.134 0.194,0.529 2.707,7.377c-0.449,-0.426 -0.656,-0.123 -6.048,-4.826Z" style="fill:#0c0a13;"/><path d="M170.715,62.632c3.417,6.125 3.984,6.074 3.681,6.597c-0.594,1.022 -2.951,-1.153 -3.544,-0.13l-0.136,-6.467Z" style="fill:#0c0a13;"/></svg>