<?xml version="1.0" encoding="UTF-8" standalone="no"?><!DOCTYPE svg PUBLIC "-//W3C//DTD SVG 1.1//EN" "http://www.w3.org/Graphics/SVG/1.1/DTD/svg11.dtd"><svg width="100%" height="100%" viewBox="0 0 326 309" version="1.1" xmlns="http://www.w3.org/2000/svg" xmlns:xlink="http://www.w3.org/1999/xlink" xml:space="preserve" xmlns:serif="http://www.serif.com/" style="fill-rule:evenodd;clip-rule:evenodd;stroke-linejoin:round;stroke-miterlimit:2;"><path d="M193.288,282.284c-2.127,3.835 -3.762,2.828 -5.425,9.784c-1.651,6.904 -4.625,5.151 -72.599,5.496c-1.286,0.007 -12.774,2.134 -14.038,-5.851c-2.059,-13.009 -6.745,-9.635 -17.826,-9.363c-8.79,0.216 -9.097,9.639 -4.029,13.444c17.58,13.195 -13.836,14.776 -17.092,9.934c-1.507,-2.24 -1.595,-5.309 -3.314,-7.39c-1.274,-1.543 -16.8,-1.625 -18.267,-1.632c-12.573,-0.066 -7.419,-8.941 -10.493,-12.162c-4.669,-4.893 -14.129,2.139 -15.004,-10.505c-0.913,-13.198 -9.073,-5.861 -13.395,-10.794c-1.417,-1.618 -1.679,-1.94 -1.463,-88.656c0.051,-20.258 -3.031,-31.203 8.361,-32.56c0.766,-0.091 6.844,-0.815 7.157,-6.464c1.325,-23.887 -4.189,-44.693 7.051,-46.606c13.78,-2.345 4.274,-11.387 13.607,-21.59c6.327,-6.917 1.658,-11.737 11.187,-13.973c11.068,-2.597 2.224,-12.738 9.954,-15.336c6.905,-2.321 12.098,2.87 13.849,-9.135c2.743,-18.813 28.151,3.546 30.542,-17.443c0.824,-7.235 4.196,-6.203 66.463,-6.272c3.483,-0.004 17.753,-2.233 19.479,5.726c0.779,3.593 -0.913,9.758 8.956,9.999c14.428,0.352 14.54,-0.715 17.577,1.263c4.838,3.152 -0.612,14.025 10.659,15.06c8.092,0.743 8.76,1.627 10.206,9.647c1.385,7.685 8.552,4.254 11.138,10.608c2.436,5.985 2.357,6.141 7.967,9.03c11.439,5.89 -3.475,20.18 13.411,22.755c10.246,1.563 6.998,14.552 7.409,42.709c0.213,14.602 11.336,6.749 14.33,13.965c0.823,1.983 2.396,113.575 -0.705,117.164c-2.414,2.794 -12.267,0.929 -13.293,7.436c-0.113,0.716 2.443,12.557 -11.209,11.881c-4.4,-0.218 -6.179,-2.234 -6.979,2.116c-0.694,3.772 2.938,3.293 1.809,6.869c-3.67,11.625 -24.889,-2.093 -29.957,11.102c-3.562,9.274 -32.986,7.525 -27.375,-2.878c1.131,-2.097 12.227,-2.985 11.114,-11.382c-1.001,-7.547 -4.4,-4.329 -19.763,-5.996Z" style="fill:#0c0a13;"/><path d="M187.7,274.128c-0.323,0.493 -0.369,7.703 -8.534,7.747c-69.064,0.369 -69.644,1.815 -74.239,-1.952c-5.076,-4.161 -1.373,-13.595 -10.835,-14.177c-11.805,-0.727 -16.042,2.073 -17.377,-9.543c-1.28,-11.133 -13.125,-3.904 -13.535,-14.262c-0.473,-11.941 3.542,-16.846 -8.207,-18.05c-10.015,-1.026 -6.147,-6.095 -10.487,-10.479c-1.59,-1.606 -10.317,-0.559 -11.761,-6.631c-0.28,-1.177 -0.01,-2.437 -0.268,-3.619c-1.705,-7.813 -5.746,-6.294 -6.099,-14.353c-0.96,-21.964 0.908,-25.832 10.957,-27.061c16.876,-2.064 2.803,31.584 14.479,36.948c7.462,3.428 7.489,3.567 11.501,10.749c5.903,10.566 19.884,-6.144 9.832,-10.775c-14.272,-6.577 -9.475,-10.736 -9.182,-31.181c0.281,-19.576 -0.306,-25.514 19.359,-25.649c25.64,-0.176 32.892,3.926 34.547,-9.943c1.332,-11.168 13.821,-2.931 14.518,-14.122c0.308,-4.957 -1.938,-29.14 7.748,-28.369c11.329,0.901 0.625,26.903 11.12,34.875c8.225,6.247 0.82,13.487 10.114,15.238c29.318,5.524 65.93,-1.899 67.098,10.293c3.861,40.317 -0.75,42.931 -3.872,44.701c-0.835,0.473 -13.68,2.693 -10.242,8.673c1.542,2.682 14.363,3.47 18.121,-3.668c3.973,-7.547 10.257,-2.088 12.024,-10.417c1.512,-7.128 -4.551,-28.918 9.455,-26.36c11.234,2.052 3.688,46.374 3.026,47.127c-3.988,4.543 -8.541,-2.287 -15.949,8.508c-4.4,6.412 -12.712,0.138 -13.719,9.155c-1.457,13.037 3.38,17.63 -9.291,20.82c-10.493,2.642 0.612,14.203 -10.04,16.407c-7.394,1.53 -7.395,0.065 -14.78,1.179c-5.575,0.841 -3.728,2.868 -5.482,8.192Z" style="fill:#e7d6a8;"/><path d="M306.361,46.825c-1.168,10.473 -3.13,12.68 -13.29,9.603c-6.228,-1.886 -2.727,-17.644 -7.411,-18.911c-1.28,-0.346 -14.641,3.493 -13.425,-11.931c0.931,-11.819 15.899,-1.069 17.021,-14.24c0.115,-1.354 1.353,-15.882 13.791,-9.914c8.196,3.932 -1.763,16.04 14.49,17.455c11.282,0.982 10.688,17.306 0.131,18.122c-5.506,0.426 -6.631,-1.638 -9.714,2.961c-0.314,0.468 -0.118,0.508 -1.592,6.855Z" style="fill:#0c0a13;"/><path d="M170.825,178.132c0.686,-13.346 0.322,-13.333 0.74,-14.409c0.47,-1.209 0.551,-1.419 14.658,-6.933c2.844,-1.112 24.142,3.099 25.61,6.805c3.709,9.365 1.419,10.6 -8.033,14.054c-7.259,2.653 -1.467,11.94 -13.949,12.204c-13.681,0.289 -18.248,1.846 -19.025,-11.721Z" style="fill:#0c0a13;"/><path d="M168.385,233.198c2.157,10.423 1.681,11.911 1.366,12.9c-2.586,8.1 -49.615,4.311 -50.927,3.039c-4.968,-4.822 1.571,-11.771 -10.73,-13.551c-10.131,-1.466 -7.383,-15.936 4.065,-12.784c7.552,2.08 2.457,10.75 6.635,11.596c3.487,0.706 7.115,-0.134 10.673,-0.169c21.515,-0.214 22.233,1.785 38.918,-1.031Z" style="fill:#0c0a13;"/><path d="M101.052,190.762c-8.353,-1.567 -10.45,0.625 -11.991,-5.094c-1.767,-6.56 -2.311,-6.588 -8.735,-8.888c-5.159,-1.848 -4.762,-12.209 -1.139,-13.715c18.442,-7.665 30.904,-5.286 31.789,1.073c3.073,22.068 2.012,23.155 0.638,24.56c-0.602,0.616 -0.771,0.151 -10.561,2.064Z" style="fill:#0c0a13;"/><path d="M102.541,100.049c-0.577,15.975 3.673,22.215 -12.446,23.774c-1.509,0.146 -14.277,4.39 -13.315,-9.502c0.686,-9.904 10.587,-4.194 11.867,-14.088c1.063,-8.219 0.662,-11.179 8.73,-9.898c6.341,1.007 4.182,3.389 5.164,9.714Z" style="fill:#0c0a13;"/><path d="M245.102,274.141c1.061,-6.113 1.244,-5.895 3.931,-11.515c0.607,-1.269 1.132,-11.273 2.052,-12.813c6.437,-10.769 1.439,-12.274 4.343,-17.693c2.073,-3.866 10.856,-0.106 6.186,13.377c-4.732,13.662 -1.964,27.809 -4.854,31.854c-5.157,7.218 -8.482,5.012 -11.659,-3.211Z" style="fill:#0c0a13;"/><path d="M31.458,259.704c-0.228,-7.547 -1.079,-7.269 -5.825,-13.24c-2.92,-3.674 -1.654,-10.45 -1.486,-11.35c1.449,-7.758 7.693,-7.911 8.412,-0.02c0.213,2.332 -0.271,4.737 0.245,7.021c0.933,4.133 9.39,5.908 9.065,14.151c-0.219,5.561 -0.066,5.461 2.746,10.418c4.422,7.795 -0.612,12.174 -3.992,11.231c-6.844,-1.908 -8.935,-16.596 -9.165,-18.211Z" style="fill:#0c0a13;"/><path d="M76.429,64.478c-0.094,-1.245 -1.382,-2.198 -1.476,-3.443c-0.537,-7.129 7.52,-6.396 8.355,-6.32c5.656,0.515 3.67,-2.181 4.157,-4.153c4.285,-17.36 18.075,-8.765 14.195,0.143c-1.973,4.529 -8.763,-1.171 -13.471,10.463c-1.502,3.713 -2.379,2.819 -5.043,5.975c-2.239,-0.888 -4.478,-1.776 -6.717,-2.665Z" style="fill:#0c0a13;"/><path d="M146.307,199.536c0.229,10.556 0.888,15.782 -9.291,12.738c-7.234,-2.164 -5.068,-29.421 6.445,-23.031c3.041,1.688 1.807,2.511 2.846,10.293Z" style="fill:#0c0a13;"/><path d="M303.42,19.895c0.849,2.085 2.02,1.44 2.32,5.699c1.147,16.287 -15.169,11.724 -15.924,3.482c-0.968,-10.569 3.098,-9.781 13.604,-9.181Z" style="fill:#f4ce71;"/><path d="M184.347,114.27c2.286,-5.982 2.042,-6.101 2.466,-6.455c10.422,-8.693 17.053,12.099 9.358,15.451c-8.913,3.882 -9.901,0.445 -11.825,-8.996Z" style="fill:#0c0a13;"/><path d="M171.996,236.217c-1.852,-10.731 -3.584,-16.7 6.999,-14.05c7.806,1.955 5.24,8.959 4.938,9.782c-1.638,4.471 -3.168,2.708 -11.937,4.268Z" style="fill:#0c0a13;"/><path d="M76.429,64.478c2.239,0.888 4.478,1.776 6.717,2.665c-0.833,0.7 -2.425,-0.882 -3.258,-0.182c-1.592,1.337 -1.652,3.891 -3.02,5.456c-3.168,3.624 -11.681,4.837 -13.654,1.941c-3.496,-5.134 8.173,-7.256 13.214,-9.879Z" style="fill:#0c0a13;"/><path d="M186.96,99.886c-4.572,2.255 -6.569,4.969 -7.432,0.035c-0.126,-0.72 -1.255,-7.174 0.878,-9.097c0.665,-0.599 4.538,-3.53 6.554,9.062Z" style="fill:#0c0a13;"/></svg>