<?xml version="1.0" encoding="UTF-8" standalone="no"?><!DOCTYPE svg PUBLIC "-//W3C//DTD SVG 1.1//EN" "http://www.w3.org/Graphics/SVG/1.1/DTD/svg11.dtd"><svg width="100%" height="100%" viewBox="0 0 414 349" version="1.1" xmlns="http://www.w3.org/2000/svg" xmlns:xlink="http://www.w3.org/1999/xlink" xml:space="preserve" xmlns:serif="http://www.serif.com/" style="fill-rule:evenodd;clip-rule:evenodd;stroke-linejoin:round;stroke-miterlimit:2;"><path d="M318.771,66.283c1.062,1.995 2.123,3.989 3.185,5.984c1.19,11.858 4.635,9.959 11.961,12.412c6.75,2.26 0.077,11.592 10.028,14.644c7.856,2.409 7.489,3.897 7.652,12.104c-3.461,3.951 -3.186,4.268 -8.307,5.536c-4.558,1.128 -12.445,15.716 3.943,17.024c13.338,1.064 12.957,2.292 18.502,5.836c-1.544,4.657 -0.193,5.792 -4.113,7.325c-6.101,2.386 -5.809,2.681 -11.765,5.145c-0.385,0.159 -26.604,1.55 -3.395,9.85c3.788,1.355 10.079,13.345 10.38,16.674c1.163,12.883 -11.621,9.611 -13.291,9.818c-5.681,0.703 -3.745,3 -6.455,11.48l-4.143,3.912c-0.561,-0.029 -7.008,-0.361 -7.008,-0.361c-10.28,2.399 2.087,21.844 -14.215,21.093c-9.831,-0.453 -6.872,-15.977 -6.952,-42.484c-0.032,-10.706 -3.934,-9.072 -14.5,-10.341c0.013,-0.887 1.88,-18.111 -3.186,-18.888c-6.18,-0.948 -5.43,6.704 -7.123,19.008c-5.996,0.56 -14.386,3.648 -15.055,-7.496c-0.648,-10.787 -3.658,-9.306 -9.727,-11.426c-2.324,-0.812 -1.742,-1.387 -5.347,-8.733c-1.459,-2.973 -11.662,-3.967 -13.367,2.16c-3.418,12.288 9.597,13.505 10.934,14.84c7.061,7.05 2.098,8.97 -7.377,12.027c-9.354,3.018 -0.677,11.799 -10.098,14.885c-8.371,2.742 -8.152,-1.033 -9.593,-9.699c-1.834,-11.031 -15.277,-1.019 -16.439,-13.906c-0.734,-8.142 -1.937,-8.406 -9.456,-10.063c-13.352,-2.941 0.068,-18.337 -13.866,-20.21c-14.483,-1.947 -7.972,13.96 -11.762,33.041c-3.672,-3.093 -2.42,-4.044 -5.989,-7.049c-1.268,-1.068 -1.446,0.365 -2.786,-0.342c-0.34,-0.179 -5.133,-6.669 -7.703,-7.306c-13.738,-3.406 -5.81,6.158 -2.569,19.779c-5.72,11.755 -4.141,12.384 -4.913,13.206c-9.273,9.862 -4.991,-12.735 -14.195,-13.238c-17.168,-0.939 2.774,50.801 -14.144,51.029c-15.86,0.214 -4.847,-17.193 -14.284,-19.676c-13.612,-3.581 -9.482,22.279 -9.515,28.124c-0.057,10.108 16.352,8.115 16.542,8.135c10.823,1.098 0.148,16.196 14.264,17.594c15.59,1.544 9.41,8.444 10.093,23.968c0.511,11.625 13.288,4.272 15.345,14.087c1.219,5.817 2.23,5.164 6.706,9.07c-2.978,1.166 -3.478,-0.064 -5.794,2.269c-1.477,1.487 -1.442,1.264 -3.046,2.879c-4.865,-2.799 -4.065,-3.891 -9.45,-5.437c-8.575,-2.461 -1.937,-9.463 -9.935,-13.199c-5.929,-2.769 -8.081,-1.694 -8.841,-9.633c-0.987,-10.321 -5.963,-7.957 -9.784,-9.206c-7.864,-2.571 -0.402,-13.526 -9.848,-16.405c-11.57,-3.526 -2.533,-15.242 -14.43,-16.603c-11.603,-1.327 -7.694,-18.971 -7.78,-25.264c-0.175,-12.748 -13.641,-3.998 -15.437,-14.411c-1.462,-8.473 0.543,-9.189 9.048,-10.538c9.098,-1.443 10.797,-22.84 -0.041,-24.424c-6.876,-1.005 -7.069,-1.666 -9.239,-7.885c-3.348,-9.595 -13.263,-0.315 -15.209,-10.286c-2.837,-14.534 10.615,-12.208 14.051,-13.711c9.925,-4.342 13.7,-0.792 16.428,-11.34c2.508,-9.699 13.251,-0.507 14.597,-10.506c0.313,-2.327 0.085,-4.714 0.496,-7.026c1.44,-8.093 14.456,-0.586 13.526,-14.057c-0.757,-10.97 -12.983,-3.228 -14.093,-14.19c-1.357,-13.41 5.025,-10.957 18.37,-9.316c14.659,1.802 7.626,-19.147 9.384,-30.166c1.038,-6.501 7.299,-2.952 9.938,-13.634c3.319,-13.43 14.676,-6.543 12.423,3.25c-1.788,7.774 -18.555,7.331 -7.24,21.848c5.401,6.93 1.169,13.218 7.169,14.933c12.657,3.618 7.821,-9.799 14.426,-19.116c5.732,-8.084 11.657,-0.832 15.928,-9.726c4.238,-8.827 14.141,0.091 16.066,-11.425c1.552,-9.285 4.559,-7.005 10.663,-8.484c8.28,-2.007 4.872,-17.997 18.032,-13.127c4.401,1.629 3.936,19.879 3.891,21.637c-0.218,8.562 -10.119,6.519 -11.772,10.292c-5.723,13.07 13.393,18.809 12.278,3.887c-0.971,-12.991 20.266,-3.613 26.911,-8.476c1.954,-1.43 1.353,-1.824 3.483,-9.439c1.588,-5.676 13.606,-6.236 15.461,-0.037c4.471,14.939 -14.749,9.919 -13.498,21.478c1.175,10.862 15.078,7.729 19.892,7.672c24.713,-0.293 21.273,-7.539 22.643,-10.336c0.882,-1.801 22.14,-9.161 26.335,-3.846c7.6,9.627 -4.896,14.251 -6.089,14.692c-0.245,0.091 -27.703,19.036 3.193,17.841Z" style="fill:#0c0a13;"/><path d="M168.815,167.473c3.79,-19.08 -2.721,-34.987 11.762,-33.041c13.934,1.873 0.514,17.269 13.866,20.21c7.519,1.656 8.722,1.921 9.456,10.063c1.162,12.887 14.606,2.876 16.439,13.906c1.44,8.666 1.222,12.441 9.593,9.699c9.421,-3.086 0.743,-11.868 10.098,-14.885c9.475,-3.057 14.438,-4.977 7.377,-12.027c-1.337,-1.335 -14.352,-2.552 -10.934,-14.84c1.704,-6.127 11.908,-5.133 13.367,-2.16c3.605,7.346 3.023,7.921 5.347,8.733c6.069,2.12 9.078,0.64 9.727,11.426c0.67,11.144 9.06,8.056 15.055,7.496c0.819,0.097 0.667,-0.177 10.31,-0.12c10.566,1.269 14.468,-0.365 14.5,10.341c0.08,26.507 -2.88,42.031 6.952,42.484c16.302,0.751 3.935,-18.695 14.215,-21.093c0,-0 6.447,0.332 7.008,0.361c7.118,12.746 5.327,13.367 3.872,27.956c-1.172,11.759 -14.085,2.205 -16.588,14.342c-3.835,18.595 -20.409,5.873 -23.539,13.61c-0.673,1.664 -0.685,19.934 -0.686,21.668c-0.94,1.823 -1.88,3.646 -2.82,5.469c-3.137,1.175 -2.883,1.401 -6.128,2.295c-4.609,1.271 -3.152,2.8 -5.874,10.6c-1.997,5.722 -3.983,3.251 -11.954,4.401c-8.434,1.216 -5.371,9.34 -8.165,12.473c-0.208,0.233 -2.447,2.743 -2.651,2.861c-3.678,2.109 -75.033,0.604 -81.557,0.466c-7.174,-0.151 -9.782,0.628 -9.491,-6.636c0.409,-10.202 -9.672,-8.517 -11.708,-8.677c-4.475,-3.906 -5.487,-3.253 -6.706,-9.07c-2.056,-9.814 -14.833,-2.462 -15.345,-14.087c-0.683,-15.524 5.497,-22.424 -10.093,-23.968c-14.116,-1.398 -3.441,-16.496 -14.264,-17.594c-0.19,-0.019 -16.599,1.974 -16.542,-8.135c0.033,-5.845 -4.097,-31.705 9.515,-28.124c9.438,2.483 -1.576,19.89 14.284,19.676c16.918,-0.228 -3.023,-51.968 14.144,-51.029c9.205,0.503 4.923,23.101 14.195,13.238c0.772,-0.821 -0.807,-1.451 4.913,-13.206c0.031,-0.008 2.278,-1.53 5.443,-1.403c7.257,0.292 6.992,-0.757 13.604,-3.679Z" style="fill:#ebe8cf;"/><path d="M337.096,200.114c1.091,0.535 1.233,2.148 6.598,3.234c9.535,1.93 8.373,8.087 8.026,28.662c-0.191,11.357 -14.287,2.921 -14.164,14.198c0.145,13.284 -13.276,5.551 -15.544,17.674c-1.237,6.612 -1.179,7.12 -7.171,9.8c-6.508,2.911 -1.101,13.506 -9.987,15.991c-10.227,2.86 -3.788,11.543 -10.344,14.317c-4.317,1.827 -7.567,0.424 -7.727,0.461c-2.458,0.57 -1.323,1.576 -2.087,9.307c-0.964,9.758 -11.826,7.035 -15.55,7.353c-11.144,0.952 -2.218,13.501 -11.03,15.561c-0.516,0.121 -80.517,0.517 -85.181,-0.175c-7.731,-1.148 -5.03,-14.207 -10.285,-15.615c-6.65,-1.782 -13.926,5.466 -15.827,-10.884c1.604,-1.615 1.569,-1.392 3.046,-2.879c2.317,-2.333 2.816,-1.103 5.794,-2.269c2.036,0.16 12.117,-1.525 11.708,8.677c-0.291,7.264 2.317,6.484 9.491,6.636c6.523,0.138 77.879,1.643 81.557,-0.466c0.205,-0.117 2.444,-2.628 2.651,-2.861c2.794,-3.133 -0.269,-11.257 8.165,-12.473c7.971,-1.149 9.957,1.321 11.954,-4.401c2.722,-7.8 1.264,-9.329 5.874,-10.6c3.244,-0.895 2.991,-1.12 6.128,-2.295c0.94,-1.823 1.88,-3.646 2.82,-5.469c0.001,-1.734 0.013,-20.004 0.686,-21.668c3.131,-7.737 19.705,4.984 23.539,-13.61c2.503,-12.137 15.416,-2.582 16.588,-14.342c1.455,-14.588 3.246,-15.209 -3.872,-27.956l4.143,-3.912Z" style="fill:#0c0a13;"/><path d="M412.577,54.515c-0.595,15.762 -7.008,12.145 -22.754,12.263c-18.015,0.135 -25.395,2.783 -25.571,-8.704c-0.537,-35.226 -1.346,-43.205 7.754,-43.44c38.3,-0.991 38.964,0.936 40.013,3.977c0.794,2.303 0.56,28.012 0.558,35.904Z" style="fill:#0c0a13;"/><path d="M38.455,287.174c4.599,3.637 5.684,2.982 6.966,8.702c1.125,5.021 2.735,3.657 7.354,5.715c1.02,0.661 2.517,0.224 3.537,0.885c2.571,1.667 3.668,3.548 3.891,3.93c1.041,1.784 -0.448,1.973 0.527,3.646c-0.682,1.023 -0.501,2.471 -1.183,3.495c-2.097,3.146 -2.658,2.206 -10.073,4.65c-1.934,0.637 -1.355,1.19 -3.309,6.137c-0.646,0.979 0.019,2.483 -0.627,3.462c-0.217,0.329 -0.266,0.25 -3.596,3.374c-3.204,-0.354 -7.505,3.982 -10.32,-6.985c-1.683,-6.558 -6.955,-5.828 -7.475,-5.97c-1.014,-0.644 -2.524,-0.039 -3.538,-0.683c-0.815,-0.517 -0.783,-1.817 -1.47,-2.496c-0.661,-0.654 -1.967,-0.56 -2.434,-1.364c-0.617,-1.062 0.134,-2.591 -0.483,-3.652c1.737,-2.511 1.157,-2.744 3.344,-4.836c1.973,-1.887 2.177,-1.317 4.61,-2.789c0.947,-0.305 6.268,0.351 7.357,-6.512c1.021,-6.436 2.679,-5.414 6.92,-8.707Z" style="fill:#ebe8cf;"/><path d="M237.482,272.691c3.777,3.97 3.459,4.027 5.823,8.904c-2.448,6.517 -2.149,6.685 -2.641,7.03c-1.557,1.092 -12.959,1.315 -14.092,1.337c-24.811,0.485 -41.043,0.837 -42.231,-4.878c-0.475,-2.282 -0.29,-4.67 -0.764,-6.952l3.865,-3.799c25.034,-2.577 24.878,-0.846 50.04,-1.642Z" style="fill:#0c0a13;"/><path d="M258.487,190.136c1.769,-0.004 20.918,-0.043 21.993,2.312c4.875,10.676 -0.474,10.861 -11.69,13.957c-5.826,1.608 0.362,22.432 -16.827,16.904c-4.728,-1.521 -4.199,-13.328 -5.402,-15.488c-0.626,-1.123 -7.325,-6.993 -2.757,-15.31c1.211,-2.205 13.493,-2.359 14.683,-2.374Z" style="fill:#0c0a13;"/><path d="M182.68,214.173c-2.082,9.529 -3.077,12.408 -12.35,9.196c-7.541,-2.612 1.469,-15.403 -10.909,-17.996c-15.506,-3.247 -8.08,-16.173 -0.313,-15.932c15.531,0.481 29.937,-2.151 27.752,10.498c-0.202,1.169 -1.652,0.683 -4.18,14.233Z" style="fill:#0c0a13;"/><path d="M400.428,274.624c11.472,2.369 14.835,3.192 11.91,14.489c-0.946,3.654 -3.967,4.242 -4.455,4.336c-7.113,1.382 -9.652,-1.234 -11.385,5.887c-2.257,9.274 -0.896,13.139 -10.395,11.999c-10.346,-1.241 -3.204,-8.215 -10.166,-16.101c1.333,-1.771 2.097,-0.502 3.341,-2.155c0.387,-0.514 0.1,-0.581 1.357,-7.922c4.445,4.896 3.605,8.257 9.065,6.046c5.623,-2.277 3.824,-3.827 5.551,-9.578c1.726,-2.333 3.451,-4.667 5.177,-7Z" style="fill:#0c0a13;"/><path d="M351.461,111.427c2.593,1.519 -1.536,4.618 11.276,6.607c0,0 18.856,2.028 20.496,2.205c-2.322,4.466 -3.453,3.898 -6.118,8.161c-4.016,6.425 0.631,6.149 6.563,13.576c-1.907,1.192 -3.813,2.383 -5.72,3.575c-10.392,-4.259 -9.679,-5.734 -34.678,-7.013c-30.715,-1.571 -15.933,-19.102 -7.39,-20.458c9.6,-1.523 9.084,-1.904 15.571,-6.652Z" style="fill:#0c0a13;"/><path d="M24.148,318.213c0.52,0.142 5.791,-0.587 7.475,5.97c2.815,10.967 7.116,6.631 10.32,6.985c3.65,5.522 5.454,4.926 4.77,10.942c-0.073,0.644 -0.643,5.656 -4.841,6.494c-13.833,2.76 -8.262,-12.179 -17.383,-15.399c-6.687,-2.361 -7.036,-2.515 -9.196,-9.349c3.76,-3.348 3.938,-2.897 8.856,-5.644Z" style="fill:#0c0a13;"/><path d="M30.151,281.579c0.042,-0.428 -0.403,-9.678 4.49,-11.238c15.692,-5.002 10.016,17.692 14.446,18.424c3.83,0.633 3.074,-3.438 6.837,-2.209c6.52,2.129 4.952,8.531 5.088,9.361c-4.25,4.662 -4.121,4.758 -4.59,5.035c-1.78,1.049 -1.984,-0.342 -3.646,0.638c-4.619,-2.058 -6.229,-0.694 -7.354,-5.715c-1.282,-5.72 -2.368,-5.065 -6.966,-8.702c-0.538,-0.162 -6.724,-2.03 -6.724,-2.03c-1.481,-1.584 -0.203,-2.092 -1.58,-3.565Z" style="fill:#0c0a13;"/><path d="M203.683,242.574c0.613,-12.616 -3.944,-19.665 8.689,-17.916c5.902,0.817 5.887,6.548 5.886,7.298c-0.046,18.569 6.012,22.649 -2.481,24.26c-11.657,2.212 -12.457,-1.69 -12.094,-13.642Z" style="fill:#0c0a13;"/><path d="M375.593,274.496c7.687,-7.251 1.717,-18.341 14.119,-16.249c9.827,1.658 5.941,10.247 7.284,12.743c0.789,1.467 2.643,2.166 3.432,3.633c-1.726,2.333 -3.451,4.667 -5.177,7c-4.869,-2.314 -5.734,-7.092 -14.48,0.102c-1.726,-2.41 -3.451,-4.82 -5.177,-7.23Z" style="fill:#0c0a13;"/><path d="M375.593,274.496c1.726,2.41 3.451,4.82 5.177,7.23l-0.136,3.43c-1.258,7.341 -0.971,7.408 -1.357,7.922c-1.244,1.653 -2.008,0.383 -3.341,2.155c-11.039,-2.332 -14.427,-2.087 -13.31,-13.433c0.865,-8.79 4.422,-5.898 12.967,-7.304Z" style="fill:#0c0a13;"/><path d="M61.012,295.917c4.373,3.678 4.04,4.161 9.639,5.316c4.653,0.96 5.474,0.764 6.226,5.371c2.25,13.795 -10.011,11.274 -10.048,11.278c-1.267,-1.168 -2.871,0.192 -6.098,-7.831c-0.976,-1.673 0.514,-1.861 -0.527,-3.646c-0.223,-0.382 -1.32,-2.263 -3.891,-3.93c-1.02,-0.661 -2.517,-0.224 -3.537,-0.885c1.663,-0.98 1.866,0.411 3.646,-0.638c0.47,-0.277 0.34,-0.373 4.59,-5.035Z" style="fill:#0c0a13;"/><path d="M168.815,165.198c-0.516,4.231 -4.447,7.038 -14.443,6.615c-4.361,-0.184 -11.752,0.731 -11.794,0.742c-4.464,-19.718 -15.385,-33.564 3.539,-28.633c3.539,0.922 10.142,10.316 10.61,10.576c1.846,1.023 2.092,-1.051 3.838,0.494c4.916,4.351 3.191,5.727 8.25,10.205Z" style="fill:#0c0a13;"/><path d="M389.697,49.504c-9.376,-2.032 -11.244,-3.115 -9.386,-12.604c1.449,-7.4 18.969,-10.012 16.266,6.893c-0.785,4.911 -2.417,3.57 -6.88,5.711Z" style="fill:#ebe8cf;"/><path d="M30.151,281.579c1.377,1.473 0.099,1.981 1.58,3.565c0,0 6.186,1.867 6.724,2.03c-4.242,3.293 -5.899,2.271 -6.92,8.707c-1.089,6.863 -6.411,6.207 -7.357,6.512c-5.017,-2.555 -4.97,-2.28 -8.932,-6.132c1.404,-5.549 -0.651,-7.292 4.66,-9.186c5.567,-1.985 5.537,-1.747 10.246,-5.497Z" style="fill:#0c0a13;"/><path d="M60.731,310.051c3.227,8.023 4.831,6.663 6.098,7.831c-3.902,4.664 -4.008,4.449 -5.785,10.311c-1.002,3.305 -1.149,3.396 -4.547,4.385c-7.66,2.229 -7.173,-0.973 -10.332,-8.245c1.954,-4.947 1.376,-5.499 3.309,-6.137c7.415,-2.444 7.976,-1.504 10.073,-4.65c0.682,-1.023 0.501,-2.471 1.183,-3.495Z" style="fill:#0c0a13;"/><path d="M191.86,277.246l-4.721,4.481c-8.462,-8.299 -21.586,-5.353 -19.404,-16.532c1.725,-8.839 17.833,-9.963 19.788,-0.232c0.553,2.752 0.21,5.684 1.148,8.338c0.558,1.579 2.632,2.366 3.19,3.945Z" style="fill:#0c0a13;"/><path d="M10.348,301.01c3.782,4.076 3.469,4.13 5.875,9.008c-0.264,0.498 1.384,1.477 -5.885,9.076c-5.575,-1.414 -7.363,0.602 -9.086,-4.797c-3.068,-9.613 -0.667,-10.883 9.096,-13.287Z" style="fill:#0c0a13;"/><path d="M237.482,272.952c2.517,-11.433 1.487,-15.428 11.405,-14.576c7.354,0.632 9.24,-0.507 10.71,8.154c1.968,11.596 -1.233,11.354 -10.756,14.92c-6.238,-3.412 -6.307,-2.927 -11.359,-8.498Z" style="fill:#0c0a13;"/><path d="M327.89,62.461c2.497,-8.768 -2.016,-12.162 8.663,-13.4c1.494,-0.173 9.9,0.54 11.535,5.381c3.849,11.391 -1.635,12.045 -17.216,12.692l-2.982,-4.673Z" style="fill:#0c0a13;"/><path d="M368.548,118.759c5.388,0.77 6.68,-1.071 9.126,3.697c4.639,9.045 -7.63,13.893 -8.888,14.391c-3.165,-6.18 -5.644,-5.951 -3.501,-11.297c1.422,-3.547 2.025,-3.075 3.264,-6.791Z" style="fill:#0c0a13;"/><path d="M269.658,172.042c6.972,-18.773 3.886,-30.447 29.33,-29.002c20.862,1.186 13.173,27.466 13.12,28.819c-39.705,-0.087 -39.077,0.33 -42.45,0.183Z" style="fill:#0c0a13;"/><path d="M380.77,281.726c8.746,-7.194 9.611,-2.416 14.48,-0.102c-1.727,5.751 0.073,7.301 -5.551,9.578c-5.461,2.211 -4.621,-1.15 -9.065,-6.046l0.136,-3.43Z" style="fill:#ebe8cf;"/><path d="M334.076,61.767l2.12,4.431c-1.405,0.464 -1.31,1.252 -6.753,2.233c-6.705,1.208 -5.898,3.022 -7.488,3.836c-1.062,-1.995 -2.123,-3.989 -3.185,-5.984c0.562,-0.422 7.022,-5.271 7.022,-5.271c0,-0 7.621,0.695 8.284,0.755Z" style="fill:#0c0a13;"/><path d="M16.223,310.017c0.617,1.062 -0.134,2.591 0.483,3.652c0.468,0.804 1.773,0.71 2.434,1.364c0.687,0.679 0.655,1.978 1.47,2.496c1.014,0.644 2.524,0.039 3.538,0.683c-4.917,2.747 -5.095,2.295 -8.856,5.644l-4.954,-4.763c7.27,-7.599 5.621,-8.579 5.885,-9.076Z" style="fill:#0c0a13;"/><path d="M15.245,296.261c3.963,3.852 3.915,3.576 8.932,6.132c-2.433,1.472 -2.637,0.902 -4.61,2.789c-2.188,2.092 -1.608,2.325 -3.344,4.836c-2.406,-4.877 -2.093,-4.931 -5.875,-9.008l4.896,-4.749Z" style="fill:#0c0a13;"/><path d="M242.404,267.8c3.955,3.617 4.009,3.302 8.892,5.517c-1.025,0.651 -2.555,0.025 -3.58,0.676c-0.85,0.54 -0.855,1.866 -1.557,2.588c-0.642,0.661 -1.903,0.64 -2.359,1.44c-0.595,1.045 0.099,2.528 -0.496,3.573c-2.364,-4.877 -2.046,-4.934 -5.823,-8.904c1.641,-1.63 3.282,-3.26 4.922,-4.891Z" style="fill:#0c0a13;"/></svg>