<svg xmlns="http://www.w3.org/2000/svg" xmlns:xlink="http://www.w3.org/1999/xlink" width="1566" zoomAndPan="magnify" viewBox="0 0 1174.5 629.999998" height="840" preserveAspectRatio="xMidYMid meet" version="1.0"><defs><clipPath id="e7381dc918"><path d="M 0 0.132812 L 1174 0.132812 L 1174 629.863281 L 0 629.863281 Z M 0 0.132812 " clip-rule="nonzero"/></clipPath><clipPath id="56133d8100"><path d="M 107 329 L 240 329 L 240 629.863281 L 107 629.863281 Z M 107 329 " clip-rule="nonzero"/></clipPath><clipPath id="412fbf84b6"><path d="M 833 328 L 966 328 L 966 629.863281 L 833 629.863281 Z M 833 328 " clip-rule="nonzero"/></clipPath><clipPath id="a5decb5b13"><path d="M 427 328 L 560 328 L 560 629.863281 L 427 629.863281 Z M 427 328 " clip-rule="nonzero"/></clipPath><clipPath id="0e76abace2"><path d="M 712 0.132812 L 832 0.132812 L 832 301 L 712 301 Z M 712 0.132812 " clip-rule="nonzero"/></clipPath><clipPath id="33148013fb"><path d="M 982.949219 72.875 L 1049.382812 72.875 L 1049.382812 130.917969 L 982.949219 130.917969 Z M 982.949219 72.875 " clip-rule="nonzero"/></clipPath><clipPath id="faee0d2ec9"><path d="M 1016.117188 72.875 L 1049.285156 130.917969 L 982.949219 130.917969 Z M 1016.117188 72.875 " clip-rule="nonzero"/></clipPath><clipPath id="680cd235eb"><path d="M 0.949219 0.875 L 67.3125 0.875 L 67.3125 58.917969 L 0.949219 58.917969 Z M 0.949219 0.875 " clip-rule="nonzero"/></clipPath><clipPath id="0797427a56"><path d="M 34.117188 0.875 L 67.285156 58.917969 L 0.949219 58.917969 Z M 34.117188 0.875 " clip-rule="nonzero"/></clipPath><clipPath id="4b58d2beaa"><rect x="0" width="68" y="0" height="59"/></clipPath><clipPath id="0dec273831"><rect x="0" width="1174" y="0" height="630"/></clipPath></defs><g clip-path="url(#e7381dc918)"><g transform="matrix(1, 0, 0, 1, 0, 0.000000000000084266)"><g clip-path="url(#0dec273831)"><path fill="#ff5e33" d="M 1042.179688 393 C 1042.285156 388.449219 1043.460938 337.636719 1044.933594 336.207031 C 1046.867188 334.332031 1097.234375 334.730469 1099.289062 336.015625 C 1101.632812 337.480469 1101.121094 376.398438 1104.5625 469.675781 C 1106.933594 533.875 1104.363281 548.46875 1108.847656 541.292969 C 1109.273438 540.613281 1113.789062 338.820312 1115.683594 336.394531 C 1117.699219 333.816406 1172.085938 335.320312 1172.503906 335.617188 C 1174.121094 336.769531 1174.597656 338.226562 1154.859375 516.695312 C 1143.21875 621.941406 1144.449219 624.035156 1141.261719 624.121094 C 1136.320312 624.253906 1081.796875 625.71875 1079.492188 623.023438 C 1076.519531 619.546875 1076.96875 549.265625 1075.503906 532.800781 C 1074.328125 519.53125 1074.328125 446.867188 1074.039062 446.425781 C 1069.867188 440.078125 1070.699219 469.441406 1070.617188 470.90625 C 1069.855469 484.355469 1068.808594 534.53125 1068.761719 535.285156 C 1066.90625 564.96875 1068.183594 571.777344 1067.398438 578.609375 C 1064.972656 599.679688 1068.695312 623.855469 1062.097656 624.070312 C 1060.371094 624.125 1004.113281 624.097656 1003.992188 624.085938 C 1002.574219 623.953125 999.820312 623.699219 999.019531 607 C 998.453125 595.140625 994.246094 561.515625 994.222656 561.21875 C 991.8125 530.097656 975.980469 395.203125 975.300781 380.640625 C 975.007812 374.378906 973.03125 366.226562 972.953125 364.558594 C 971.691406 338.742188 969.351562 336.316406 973.1875 335.316406 C 974.710938 334.917969 1023.882812 335.089844 1026.210938 335.203125 C 1029.3125 335.355469 1029.320312 337.945312 1029.347656 338.589844 C 1029.433594 340.65625 1029.316406 342.730469 1029.472656 344.789062 C 1031.234375 368.339844 1030.308594 368.269531 1031.265625 391.761719 C 1031.347656 393.738281 1031.992188 409.652344 1031.941406 416.503906 C 1031.867188 426.511719 1032.734375 426.378906 1033.054688 436.324219 C 1035.570312 514.527344 1032.074219 521.730469 1037.320312 517.835938 C 1040.507812 515.472656 1039.210938 456.488281 1039.773438 448.65625 C 1041.773438 420.765625 1041.648438 420.886719 1042.179688 393 Z M 1042.179688 393 " fill-opacity="1" fill-rule="evenodd"/><path fill="#ff5e33" d="M 367.109375 599.578125 C 367.332031 582.582031 373.429688 459.757812 373.578125 454.867188 C 374.152344 435.484375 376.0625 434.542969 374.125 432.789062 C 369.125 428.25 371.871094 445.828125 365.367188 504.296875 C 365.125 506.472656 355.636719 609.851562 354.324219 618.101562 C 353.027344 626.25 349.964844 624.195312 337.230469 624.125 C 316.078125 624.011719 311.289062 626.664062 310.601562 615.644531 C 309.09375 591.578125 307.976562 591.757812 307.898438 589.667969 C 307.460938 577.84375 306.378906 578.03125 305.609375 566.140625 C 303.988281 541.035156 303.046875 541.132812 302.972656 538.949219 C 302.5625 527.035156 301.785156 527.226562 300.726562 515.382812 C 298.289062 488.058594 298.09375 488.117188 297.902344 485.742188 C 294.484375 443.515625 294.753906 443.558594 294.382812 439.898438 C 294.035156 436.480469 290.261719 436.601562 290.746094 439.9375 C 291.386719 444.359375 291.25 444.277344 291.410156 448.660156 C 293.15625 496.527344 294.195312 496.445312 294.277344 500.605469 C 294.953125 535.402344 296.488281 535.222656 297.101562 569.910156 C 297.570312 596.339844 301 617.335938 299.019531 621.90625 C 297.558594 625.28125 296.265625 624.429688 253.117188 624.105469 C 252.710938 624.101562 249.613281 624.078125 249.414062 620.605469 C 249.078125 614.71875 249.230469 429.414062 249.246094 412.789062 C 249.304688 337.875 248.324219 335.949219 251.972656 335.265625 C 253.554688 334.972656 315.738281 335.128906 317.429688 335.144531 C 322.59375 335.203125 321.746094 337.15625 321.855469 342.28125 C 322.082031 352.847656 323.464844 352.679688 323.554688 363.3125 C 323.824219 394.941406 325.964844 394.792969 326.375 420.210938 C 326.449219 424.867188 326.457031 425.421875 329.355469 478.375 C 329.566406 482.222656 331.550781 527.472656 331.605469 527.5625 C 335.34375 533.738281 335.109375 518.773438 335.097656 517.957031 C 334.574219 484.476562 336.917969 484.636719 337.550781 451.144531 C 337.570312 449.996094 342.691406 349.84375 343.367188 342.277344 C 344.203125 332.972656 347.710938 335.070312 357.023438 335.074219 C 414.765625 335.101562 415.769531 335.089844 416.328125 337.355469 C 416.863281 339.539062 416.414062 467.070312 416.371094 478.351562 C 415.871094 619.640625 419.222656 624.082031 412.6875 624.113281 C 370.222656 624.324219 369.34375 625.8125 367.105469 622.933594 C 365.960938 621.457031 366.335938 621.265625 367.109375 599.578125 Z M 367.109375 599.578125 " fill-opacity="1" fill-rule="evenodd"/><g clip-path="url(#56133d8100)"><path fill="#ff5e33" d="M 239.558594 579.789062 C 237.21875 603.398438 222.375 617.960938 207.242188 624.042969 C 196.296875 628.4375 123.949219 644.316406 110.511719 587.277344 C 106.734375 571.234375 108.304688 561.292969 108.128906 391.761719 C 108.113281 378.605469 106.136719 328.882812 173.941406 329.164062 C 177.417969 329.175781 197.851562 327.550781 218.207031 340.238281 C 239.800781 353.699219 239.820312 383.855469 239.824219 388.050781 C 239.9375 555.742188 239.800781 564.453125 239.558594 579.789062 Z M 239.558594 579.789062 " fill-opacity="1" fill-rule="evenodd"/></g><g clip-path="url(#412fbf84b6)"><path fill="#ff5e33" d="M 960.902344 362.003906 C 967.757812 380.101562 965.347656 380.75 965.816406 540.199219 C 965.933594 580.730469 969.832031 611.566406 927.460938 626.121094 C 916.835938 629.769531 887.5 629.375 882.703125 628.207031 C 880.070312 627.5625 864.554688 625.691406 851.097656 613.835938 C 830.839844 595.980469 834.183594 561.714844 834.175781 541.4375 C 834.125 390.003906 833.441406 390.035156 834.417969 376.910156 C 835.910156 356.839844 853.203125 335.917969 877.820312 331.234375 C 887.988281 329.296875 943.394531 319.894531 960.902344 362.003906 Z M 960.902344 362.003906 " fill-opacity="1" fill-rule="evenodd"/></g><path fill="#ff5e33" d="M 408.980469 6.054688 C 464.242188 7.972656 465.761719 51.527344 466.285156 55.234375 C 467.367188 62.886719 466.6875 221.441406 466.628906 235.894531 C 466.609375 240.195312 466.472656 271.949219 444.507812 284.863281 C 425.738281 295.898438 418.660156 294.648438 349.597656 294.519531 C 341.65625 294.503906 338.558594 295.789062 338.5625 287.847656 C 338.785156 7.589844 339.121094 7.472656 339.609375 6.953125 C 340.433594 6.089844 348.796875 6.089844 349.601562 6.089844 C 369.394531 6.078125 389.1875 6.066406 408.980469 6.054688 Z M 408.980469 6.054688 " fill-opacity="1" fill-rule="evenodd"/><path fill="#ff5e33" d="M 568.761719 385.578125 C 568.773438 376.917969 568.785156 368.257812 568.796875 359.601562 C 568.839844 347.230469 568.730469 347.304688 568.71875 342.285156 C 568.710938 336.550781 569.023438 335.289062 574.746094 335.148438 C 640.398438 333.574219 650.03125 335.757812 656.402344 337.203125 C 692.65625 345.429688 691.902344 363.878906 691.875 407.847656 C 691.832031 489.796875 693.546875 491.527344 681.578125 505.933594 C 678.394531 509.761719 680.746094 512.855469 681.019531 519.179688 C 681.527344 531.046875 682.933594 530.839844 683.558594 542.675781 C 684.828125 566.796875 693.339844 619.691406 691.710938 622.777344 C 690.308594 625.4375 638.3125 623.851562 638.058594 623.707031 C 633.652344 621.148438 635.722656 600.789062 634.023438 573.605469 C 630.957031 524.519531 634.839844 521.84375 629.21875 520.214844 C 621.496094 517.976562 626.355469 524.859375 624.570312 620.617188 C 624.476562 625.40625 616.160156 624.101562 609.371094 624.082031 C 570.660156 623.976562 568.882812 624.898438 568.773438 621.820312 C 568.738281 620.839844 568.757812 388.457031 568.761719 385.578125 Z M 568.761719 385.578125 " fill-opacity="1" fill-rule="evenodd"/><path fill="#ff5e33" d="M 619.269531 6.078125 C 651.046875 6.039062 683.003906 3.027344 696.914062 27.007812 C 701.832031 35.480469 705.355469 41.558594 703.144531 149.304688 C 702.75 168.554688 692.914062 176.046875 691.5 179.191406 C 690.558594 181.28125 691.148438 181.449219 703.417969 291.558594 C 703.878906 295.703125 701.140625 295.160156 651.394531 294.554688 C 646.695312 294.5 646.628906 292.464844 646.527344 269.300781 C 646.449219 251.425781 644.207031 251.570312 643.777344 196.316406 C 643.742188 191.425781 639.390625 189.738281 637.023438 192.882812 C 635.023438 195.539062 636.957031 281.125 636.066406 291.519531 C 635.75 295.214844 633.828125 294.519531 592.058594 294.578125 C 583.882812 294.589844 580.054688 297.246094 580.039062 289.089844 C 579.996094 266.613281 579.476562 11.234375 580.371094 8.132812 C 581.035156 5.820312 582.011719 5.925781 619.269531 6.078125 Z M 619.269531 6.078125 " fill-opacity="1" fill-rule="evenodd"/><path fill="#ff5e33" d="M 701.683594 375.675781 C 701.710938 337.6875 701.722656 337.695312 701.832031 337.246094 C 702.542969 334.300781 710.867188 335.066406 718.230469 335.046875 C 779.394531 334.882812 786.886719 335.082031 796.132812 338.644531 C 826.496094 350.332031 824.535156 368.820312 824.527344 406.605469 C 824.511719 488.4375 826.742188 490.382812 814.054688 506.0625 C 809.351562 511.878906 823 597.59375 824.707031 620.601562 C 825.027344 624.929688 822.238281 624.136719 794.921875 624.078125 C 773.144531 624.035156 768.175781 626.476562 768.0625 615.652344 C 768.023438 612.1875 767.691406 581.335938 766.589844 572.347656 C 763.933594 550.722656 767.507812 522.316406 762.785156 520.355469 C 755.957031 517.519531 757.738281 523.902344 757.855469 594.628906 C 757.898438 620.390625 759.296875 624.089844 751.625 624.101562 C 703.449219 624.171875 703.128906 624.132812 702.246094 623.011719 C 701.59375 622.191406 701.714844 622.011719 701.683594 375.675781 Z M 701.683594 375.675781 " fill-opacity="1" fill-rule="evenodd"/><g clip-path="url(#a5decb5b13)"><path fill="#ff5e33" d="M 485.738281 498.011719 C 480.28125 498 461.105469 504.511719 457.355469 507.011719 C 428.917969 525.988281 503.285156 538.007812 504.289062 550.089844 C 504.578125 553.5625 504.933594 557.804688 463.441406 565.132812 C 429.808594 571.070312 428.492188 571.371094 427.59375 568.632812 C 426.75 566.0625 427.292969 402.496094 427.339844 388.050781 C 427.59375 311.40625 519.429688 324.300781 540.785156 342.886719 C 560.304688 359.871094 559.117188 382.707031 559.136719 391.757812 C 559.582031 568.324219 560.273438 568.394531 558 583.570312 C 549.3125 641.542969 476.015625 628.847656 467.199219 626.363281 C 456.597656 623.378906 446.136719 615.8125 445.84375 614.511719 C 444.441406 608.257812 508.0625 586.257812 524.988281 574.472656 C 566.378906 545.644531 505.5625 530.394531 484.53125 522.617188 C 448.066406 509.132812 486 500.617188 486.46875 500.140625 C 486.671875 499.9375 485.828125 499.605469 486.03125 499.398438 C 485.933594 498.9375 485.835938 498.476562 485.738281 498.011719 Z M 485.738281 498.011719 " fill-opacity="1" fill-rule="evenodd"/></g><path fill="#ff5e33" d="M 204.734375 258.160156 C 205.480469 246.410156 217.175781 155.925781 230.113281 42.996094 C 234.152344 7.714844 234.074219 6.292969 237.070312 6.148438 C 239.464844 6.035156 296.003906 6.046875 296.386719 6.066406 C 297.894531 6.15625 299.570312 6.25 300.746094 24.40625 C 301.5625 37.011719 308.964844 91.566406 309.222656 94.851562 C 310.136719 106.398438 314.40625 137.859375 314.433594 138.222656 C 315.738281 156.570312 316.75 156.425781 316.859375 158.015625 C 317.785156 171.730469 318.707031 171.53125 319.667969 185.203125 C 319.742188 186.265625 332.453125 291.265625 332.472656 291.5625 C 332.691406 295.464844 325.847656 294.585938 310.011719 294.5625 C 275.984375 294.511719 273.996094 295.273438 273.800781 291.589844 C 273.691406 289.511719 272.835938 273.339844 272.839844 265.585938 C 272.84375 255.3125 272.53125 250.738281 262.859375 253.996094 C 258.960938 255.308594 260.789062 274.007812 259.789062 291.613281 C 259.5625 295.59375 252.585938 294.519531 251.882812 294.519531 C 204.089844 294.550781 204.066406 294.992188 202.308594 294.203125 C 199.648438 293.011719 204.097656 267.410156 204.734375 258.160156 Z M 204.734375 258.160156 " fill-opacity="1" fill-rule="evenodd"/><g clip-path="url(#0e76abace2)"><path fill="#ff5e33" d="M 713.125 204.972656 C 713.148438 204.457031 713.355469 199.121094 714.460938 198.671875 C 717.949219 197.25 717.996094 197.832031 761.535156 198.34375 C 767.515625 198.414062 765.886719 201.851562 765.75 251.992188 C 765.710938 265.0625 776.722656 261.277344 777.144531 255.640625 C 781.621094 195.347656 744.792969 149.851562 737.359375 138.992188 C 734.121094 134.257812 714.5625 105.675781 713.382812 71.375 C 712.355469 41.414062 711.847656 21.417969 731.464844 8.9375 C 749.964844 -2.828125 828.074219 -12.316406 829.664062 46.632812 C 830.734375 86.195312 830.007812 86.996094 827.011719 88.511719 C 825.742188 89.15625 781.320312 88.8125 780.089844 88.621094 C 774.476562 87.75 780.289062 44.335938 775.933594 41 C 771.667969 37.734375 764.9375 41.339844 766.984375 56.507812 C 771.90625 92.949219 785.890625 105.019531 805.617188 135.988281 C 825.585938 167.339844 830.09375 208.683594 830.257812 212.429688 C 832.066406 253.433594 833.804688 270.507812 821.808594 283.859375 C 800.460938 307.609375 743.417969 303.886719 724.863281 286.125 C 711.351562 273.195312 713.03125 268.578125 713.125 204.972656 Z M 713.125 204.972656 " fill-opacity="1" fill-rule="evenodd"/></g><path fill="#ff5e33" d="M 960.679688 184.742188 C 1075.699219 184.640625 1075.691406 184.035156 1085.644531 184.996094 C 1135.597656 189.804688 1134.320312 263.539062 1109.867188 283.582031 C 1101.058594 290.800781 1093.570312 291.800781 1085.625 294.078125 C 1082.261719 295.042969 983.597656 294.277344 928.523438 294.542969 C 876.96875 294.792969 879.730469 243.3125 880.035156 233.421875 C 880.75 210.097656 894.03125 191.871094 909.90625 187.5 C 921.511719 184.304688 921.597656 184.671875 960.679688 184.742188 Z M 960.679688 184.742188 " fill-opacity="1" fill-rule="evenodd"/><path fill="#ff5e33" d="M 562.367188 6.042969 C 569.167969 6.171875 569.15625 5.980469 569.707031 6.183594 C 571.300781 6.757812 571.253906 6.839844 571.855469 8.398438 C 572.425781 9.875 572.480469 39.039062 572.183594 42.917969 C 571.445312 52.660156 540.257812 43.121094 536.640625 49.238281 C 535.417969 51.304688 536.042969 133.722656 536.238281 134.507812 C 537.363281 138.976562 560.863281 135.273438 563.347656 137.273438 C 565.289062 138.832031 564.152344 165.496094 564.121094 165.59375 C 562.84375 169.566406 539.625 164.328125 536.527344 169.179688 C 535.484375 170.8125 535.792969 251.585938 536.324219 253.242188 C 537.878906 258.085938 567.3125 253.78125 570.835938 256.035156 C 573.828125 257.945312 572.734375 266.738281 572.734375 266.828125 C 572.515625 289.1875 573.941406 294.40625 569.84375 294.515625 C 559.929688 294.777344 488.984375 294.679688 481.953125 294.671875 C 475.078125 294.660156 476.574219 289.996094 476.636719 279.191406 C 476.859375 239.484375 476.226562 10.101562 476.808594 8.222656 C 477.796875 5.039062 479.339844 6.308594 562.367188 6.042969 Z M 562.367188 6.042969 " fill-opacity="1" fill-rule="evenodd"/><path fill="#ff5e33" d="M 161.578125 6.078125 C 194.335938 6.03125 196.316406 5.140625 197.082031 9.570312 C 197.28125 10.730469 197.199219 43.320312 197.003906 44.085938 C 194.824219 52.605469 160.742188 41.367188 160.488281 51.597656 C 160.363281 56.558594 160.558594 109.378906 160.355469 131.992188 C 160.292969 138.890625 168.144531 136.304688 186.3125 136.722656 C 188.523438 136.773438 190.875 137.335938 189.332031 164.199219 C 188.835938 172.882812 160.464844 160.304688 160.460938 172.8125 C 160.449219 196.316406 160.4375 219.816406 160.425781 243.320312 C 160.429688 252.089844 159.03125 255.476562 167.761719 255.480469 C 187.054688 255.496094 197.570312 253.738281 197.703125 259.386719 C 197.769531 262.132812 198.46875 291.671875 197.109375 293.6875 C 196.074219 295.21875 103.585938 294.976562 102.394531 293.824219 C 101.023438 292.5 101.667969 292.105469 101.429688 50.347656 C 101.386719 7.445312 101.679688 6.84375 103.5 6.121094 C 104.046875 5.902344 103.992188 6.011719 126.941406 6.074219 C 138.484375 6.074219 150.03125 6.078125 161.578125 6.078125 Z M 161.578125 6.078125 " fill-opacity="1" fill-rule="evenodd"/><path fill="#ff5e33" d="M 26.742188 624.121094 C 19.867188 623.746094 21.949219 620.082031 21.820312 572.363281 C 21.410156 422.523438 22.679688 380.5 20.675781 379.269531 C 15.886719 376.324219 1.015625 382.035156 0.886719 374.4375 C 0.308594 339.277344 -0.238281 339.101562 1.359375 336.519531 C 2.65625 334.417969 3.472656 335.417969 94.78125 335.074219 C 100.449219 335.054688 101.746094 335.414062 101.714844 341.035156 C 101.558594 369.84375 103.363281 378.105469 98.507812 378.328125 C 90.464844 378.695312 80.789062 376.367188 80.433594 383.128906 C 79.660156 397.695312 81.234375 620.121094 79.566406 622.828125 C 78.5 624.5625 77.863281 623.933594 26.742188 624.121094 Z M 26.742188 624.121094 " fill-opacity="1" fill-rule="evenodd"/><path fill="#ff5e33" d="M 10.664062 6.0625 C 56.261719 6.117188 56.179688 6.03125 60.136719 6.054688 C 65.417969 6.085938 63.792969 15.566406 63.796875 15.714844 C 64.792969 132.050781 62.363281 131.945312 63.625 248.277344 C 63.726562 257.644531 91.398438 247.820312 92.667969 255.625 C 92.722656 255.960938 92.757812 290.316406 92.699219 291.59375 C 92.539062 295.078125 90.671875 294.597656 46.535156 294.558594 C 7.703125 294.523438 5.714844 295.378906 5.332031 291.589844 C 5.3125 291.386719 5.292969 18.507812 5.296875 18.1875 C 5.355469 10.070312 2.644531 6.578125 10.664062 6.0625 Z M 10.664062 6.0625 " fill-opacity="1" fill-rule="evenodd"/><path fill="#ff5e33" d="M 888.933594 177.683594 C 882.0625 177.375 883.734375 174.628906 883.726562 167.871094 C 883.628906 100.125 883.960938 99.660156 885.386719 98.9375 C 885.996094 98.628906 914.867188 96.894531 916.234375 99.777344 C 917.996094 103.488281 914.992188 127.136719 918.539062 128.460938 C 920.878906 129.332031 939.835938 128.640625 984.183594 128.945312 C 988.519531 128.972656 996.816406 130.117188 996.960938 125.859375 C 997.566406 107.820312 994.925781 104.878906 1000.25 104.660156 C 1002.585938 104.5625 1027.359375 103.527344 1029.460938 105.332031 C 1032.242188 107.71875 1027.140625 128.601562 1033.628906 128.789062 C 1047.082031 129.175781 1119.90625 128.109375 1121.484375 129.523438 C 1122.746094 130.648438 1122.53125 130.984375 1122.484375 169.101562 C 1122.484375 169.765625 1122.476562 176.539062 1121.292969 177.34375 C 1120.386719 177.957031 1097.597656 177.542969 888.933594 177.683594 Z M 888.933594 177.683594 " fill-opacity="1" fill-rule="evenodd"/><path fill="#f9f4e1" d="M 901.433594 579.113281 C 892.601562 579.441406 894.292969 574.65625 894.183594 530.304688 C 894.15625 518.632812 893.835938 387.769531 894.402344 384.394531 C 895.425781 378.292969 906.261719 372.859375 906.445312 390.519531 C 906.453125 391.3125 906.507812 565.234375 906.421875 568.652344 C 906.207031 577.160156 902.292969 578.761719 901.433594 579.113281 Z M 901.433594 579.113281 " fill-opacity="1" fill-rule="evenodd"/><path fill="#f9f4e1" d="M 180.140625 477.113281 C 180.425781 567.035156 181.457031 567.132812 179.699219 574.746094 C 178.601562 579.484375 168.695312 583.804688 168.648438 571.125 C 168.597656 556.078125 168 386.824219 168.847656 383.074219 C 170.375 376.339844 179.371094 377.84375 179.992188 384.359375 C 180.699219 391.746094 180.210938 391.738281 180.140625 477.113281 Z M 180.140625 477.113281 " fill-opacity="1" fill-rule="evenodd"/><path fill="#f9f4e1" d="M 401.652344 53.5625 C 406.863281 55.054688 406.542969 56.820312 406.613281 84.984375 C 406.976562 230.667969 407.480469 230.675781 406.242188 243.277344 C 405.816406 247.585938 395.320312 251.324219 395.226562 243.324219 C 394.238281 159.148438 395.101562 73.75 395.25 59.003906 C 395.308594 52.960938 397.265625 53.082031 401.652344 53.5625 Z M 401.652344 53.5625 " fill-opacity="1" fill-rule="evenodd"/><path fill="#f9f4e1" d="M 949.542969 244.191406 C 927.457031 244.144531 920.824219 245.550781 920.390625 239.613281 C 919.9375 233.433594 923.695312 234.871094 971.8125 234.757812 C 1080.335938 234.503906 1087.980469 232.082031 1085.109375 240.691406 C 1083.832031 244.53125 1082.410156 244.171875 1036.132812 244.222656 C 1007.273438 244.210938 978.410156 244.199219 949.542969 244.191406 Z M 949.542969 244.191406 " fill-opacity="1" fill-rule="evenodd"/><path fill="#f9f4e1" d="M 635.003906 481.957031 C 630.351562 490.410156 624.589844 485.683594 624.503906 482.046875 C 624.429688 478.699219 624.34375 384.128906 624.699219 379.433594 C 625.101562 374.128906 635.117188 373.589844 635.617188 383.085938 C 635.660156 383.886719 635.964844 473.898438 635.605469 478.378906 C 635.585938 478.671875 635.5625 478.644531 635.003906 481.957031 Z M 635.003906 481.957031 " fill-opacity="1" fill-rule="evenodd"/><path fill="#f9f4e1" d="M 767.984375 482.144531 C 767.59375 482.804688 763.730469 489.363281 759.101562 485.710938 C 756.6875 483.804688 758.136719 452.34375 757.734375 385.574219 C 757.730469 385.449219 755.957031 373.613281 763.914062 376 C 771.433594 378.253906 768.308594 395.371094 768.925781 467.21875 C 769.023438 478.800781 768.59375 478.695312 767.984375 482.144531 Z M 767.984375 482.144531 " fill-opacity="1" fill-rule="evenodd"/><path fill="#f9f4e1" d="M 646.527344 51.574219 C 646.96875 58.082031 647.953125 150.597656 645.984375 153.996094 C 643.683594 157.972656 636.339844 159.902344 636.277344 153.019531 C 636.199219 144.714844 635.339844 52.839844 636.867188 49.238281 C 637.863281 46.886719 641.203125 47.335938 641.605469 47.390625 C 645.101562 47.863281 644.847656 48.480469 646.527344 51.574219 Z M 646.527344 51.574219 " fill-opacity="1" fill-rule="evenodd"/><path fill="#f9f4e1" d="M 268.933594 140.648438 C 268.65625 193.089844 274.996094 219.5625 269.144531 220.722656 C 258.933594 222.75 262.265625 213.097656 262.347656 200.035156 C 262.484375 179.222656 264.90625 166.6875 264.3125 128.28125 C 264.292969 126.867188 265.066406 112.234375 265.140625 110.835938 C 265.164062 110.402344 268.847656 106.984375 268.964844 114.679688 C 268.96875 114.957031 268.699219 128.300781 268.933594 140.648438 Z M 268.933594 140.648438 " fill-opacity="1" fill-rule="evenodd"/><path fill="#f9f4e1" d="M 499.132812 420.027344 C 498.886719 422.03125 498.339844 424.59375 499.585938 424.625 C 500.847656 424.65625 511.421875 415.011719 518.148438 411.6875 C 525.550781 408.023438 525.054688 407.347656 532.191406 403.21875 C 537.097656 400.382812 538.363281 403.730469 536.359375 405.699219 C 534.621094 407.40625 534.378906 407.105469 511.800781 423.921875 C 506.867188 427.59375 515.097656 425.175781 518.816406 427.015625 C 524.261719 429.714844 524.523438 427.546875 530.566406 427.359375 C 541.507812 427.019531 539.191406 432.175781 537.269531 433.019531 C 535.402344 433.832031 535.125 432.535156 512.140625 437.769531 C 506.753906 438.996094 510.230469 442.445312 513.390625 448.5625 C 517.628906 456.757812 524.539062 461.792969 518.050781 462.316406 C 513.699219 462.671875 510.472656 455.269531 502.097656 449.519531 C 500.777344 448.613281 497.335938 444.019531 497.089844 447.6875 C 496.804688 451.914062 493.582031 466.464844 491.441406 467.433594 C 486.414062 469.707031 488.6875 458.558594 488.78125 452.71875 C 488.804688 451.296875 488.800781 449.875 488.820312 448.453125 C 488.886719 444.226562 490.425781 438.292969 487.964844 440.117188 C 466.78125 455.796875 465.226562 466.996094 459.417969 458.238281 C 455.875 452.894531 480.265625 438.136719 480.179688 436.363281 C 480.070312 434.132812 462.457031 437.832031 462.089844 429.960938 C 461.796875 423.625 478.433594 430.417969 475.25 426.441406 C 473.054688 423.691406 472.527344 424.140625 468.410156 418.054688 C 458.582031 403.527344 459.453125 402.4375 460.742188 401.71875 C 466.316406 398.59375 472.097656 413.472656 478.960938 415.253906 C 486.472656 417.203125 491.5625 424.265625 492.496094 420.078125 C 494.597656 410.660156 493.175781 382.636719 500.359375 390.140625 C 502.125 391.984375 503.894531 392.53125 499.132812 420.027344 Z M 499.132812 420.027344 " fill-opacity="1" fill-rule="evenodd"/><g clip-path="url(#33148013fb)"><g clip-path="url(#faee0d2ec9)"><g transform="matrix(1, 0, 0, 1, 982, 72)"><g clip-path="url(#4b58d2beaa)"><g clip-path="url(#680cd235eb)"><g clip-path="url(#0797427a56)"><path fill="#ff5e33" d="M 0.949219 0.875 L 67.382812 0.875 L 67.382812 58.917969 L 0.949219 58.917969 Z M 0.949219 0.875 " fill-opacity="1" fill-rule="nonzero"/></g></g></g></g></g></g></g></g></g></svg>