<svg xmlns="http://www.w3.org/2000/svg" xmlns:xlink="http://www.w3.org/1999/xlink" width="1266" zoomAndPan="magnify" viewBox="0 0 949.5 509.249984" height="679" preserveAspectRatio="xMidYMid meet" version="1.0"><defs><clipPath id="16203b2857"><path d="M 87 265 L 195 265 L 195 508.5 L 87 508.5 Z M 87 265 " clip-rule="nonzero"/></clipPath><clipPath id="8c5716582b"><path d="M 0.449219 270 L 83 270 L 83 504 L 0.449219 504 Z M 0.449219 270 " clip-rule="nonzero"/></clipPath><clipPath id="9b82ca6a79"><path d="M 794.132812 58.734375 L 847.777344 58.734375 L 847.777344 105.601562 L 794.132812 105.601562 Z M 794.132812 58.734375 " clip-rule="nonzero"/></clipPath><clipPath id="668cb55312"><path d="M 820.914062 58.734375 L 847.695312 105.601562 L 794.132812 105.601562 Z M 820.914062 58.734375 " clip-rule="nonzero"/></clipPath><clipPath id="d93d93a0f5"><path d="M 0.132812 0.734375 L 53.777344 0.734375 L 53.777344 47.601562 L 0.132812 47.601562 Z M 0.132812 0.734375 " clip-rule="nonzero"/></clipPath><clipPath id="6d53023c3f"><path d="M 26.914062 0.734375 L 53.695312 47.601562 L 0.132812 47.601562 Z M 26.914062 0.734375 " clip-rule="nonzero"/></clipPath><clipPath id="aaa2a73a94"><rect x="0" width="54" y="0" height="48"/></clipPath></defs><path fill="#ffffff" d="M 841.992188 317.222656 C 842.078125 313.550781 843.027344 272.519531 844.214844 271.367188 C 845.777344 269.851562 886.445312 270.171875 888.105469 271.210938 C 889.996094 272.394531 889.585938 303.820312 892.363281 379.136719 C 894.277344 430.976562 892.203125 442.761719 895.824219 436.96875 C 896.167969 436.417969 899.8125 273.476562 901.34375 271.515625 C 902.96875 269.4375 946.886719 270.648438 947.226562 270.890625 C 948.53125 271.820312 948.914062 272.996094 932.976562 417.101562 C 923.578125 502.085938 924.570312 503.777344 921.996094 503.847656 C 918.007812 503.953125 873.984375 505.136719 872.121094 502.960938 C 869.71875 500.152344 870.082031 443.402344 868.902344 430.105469 C 867.949219 419.390625 867.949219 360.71875 867.714844 360.363281 C 864.347656 355.238281 865.019531 378.945312 864.953125 380.132812 C 864.339844 390.988281 863.492188 431.503906 863.453125 432.117188 C 861.957031 456.082031 862.992188 461.582031 862.355469 467.097656 C 860.398438 484.109375 863.402344 503.632812 858.078125 503.804688 C 856.679688 503.851562 811.257812 503.828125 811.15625 503.816406 C 810.011719 503.710938 807.789062 503.507812 807.140625 490.019531 C 806.683594 480.445312 803.289062 453.292969 803.269531 453.054688 C 801.324219 427.925781 788.539062 319.003906 787.992188 307.246094 C 787.753906 302.191406 786.160156 295.605469 786.09375 294.257812 C 785.078125 273.414062 783.1875 271.457031 786.28125 270.648438 C 787.515625 270.328125 827.21875 270.464844 829.097656 270.554688 C 831.601562 270.679688 831.609375 272.769531 831.628906 273.289062 C 831.699219 274.957031 831.605469 276.632812 831.730469 278.296875 C 833.152344 297.3125 832.40625 297.253906 833.179688 316.222656 C 833.246094 317.820312 833.765625 330.671875 833.726562 336.203125 C 833.664062 344.285156 834.363281 344.175781 834.621094 352.207031 C 836.65625 415.355469 833.832031 421.167969 838.066406 418.027344 C 840.640625 416.117188 839.59375 368.488281 840.046875 362.164062 C 841.664062 339.644531 841.5625 339.742188 841.992188 317.222656 Z M 841.992188 317.222656 " fill-opacity="1" fill-rule="evenodd"/><path fill="#ffffff" d="M 296.898438 484.027344 C 297.078125 470.304688 302 371.128906 302.121094 367.179688 C 302.585938 351.53125 304.128906 350.769531 302.5625 349.351562 C 298.527344 345.6875 300.746094 359.882812 295.492188 407.09375 C 295.292969 408.847656 287.632812 492.324219 286.574219 498.988281 C 285.527344 505.566406 283.054688 503.90625 272.773438 503.847656 C 255.691406 503.757812 251.828125 505.898438 251.269531 497 C 250.050781 477.570312 249.148438 477.714844 249.085938 476.027344 C 248.734375 466.480469 247.859375 466.628906 247.238281 457.03125 C 245.929688 436.757812 245.167969 436.835938 245.109375 435.074219 C 244.78125 425.453125 244.152344 425.605469 243.296875 416.042969 C 241.328125 393.980469 241.167969 394.027344 241.015625 392.113281 C 238.253906 358.015625 238.472656 358.050781 238.171875 355.09375 C 237.894531 352.335938 234.847656 352.429688 235.238281 355.125 C 235.753906 358.695312 235.644531 358.628906 235.773438 362.167969 C 237.183594 400.816406 238.023438 400.753906 238.085938 404.113281 C 238.636719 432.210938 239.871094 432.066406 240.367188 460.074219 C 240.75 481.414062 243.515625 498.367188 241.917969 502.058594 C 240.738281 504.78125 239.695312 504.09375 204.855469 503.832031 C 204.523438 503.828125 202.023438 503.8125 201.863281 501.007812 C 201.589844 496.253906 201.714844 346.628906 201.726562 333.203125 C 201.777344 272.710938 200.980469 271.160156 203.929688 270.609375 C 205.207031 270.367188 255.417969 270.496094 256.78125 270.507812 C 260.953125 270.554688 260.269531 272.132812 260.359375 276.269531 C 260.542969 284.804688 261.65625 284.667969 261.730469 293.253906 C 261.949219 318.792969 263.675781 318.671875 264.003906 339.195312 C 264.066406 342.957031 264.074219 343.40625 266.414062 386.164062 C 266.582031 389.269531 268.183594 425.804688 268.230469 425.878906 C 271.246094 430.863281 271.058594 418.78125 271.050781 418.121094 C 270.628906 391.085938 272.519531 391.21875 273.03125 364.175781 C 273.046875 363.246094 277.179688 282.378906 277.726562 276.269531 C 278.402344 268.753906 281.234375 270.449219 288.753906 270.453125 C 335.378906 270.472656 336.191406 270.464844 336.640625 272.292969 C 337.074219 274.054688 336.710938 377.035156 336.675781 386.140625 C 336.273438 500.226562 338.976562 503.8125 333.699219 503.839844 C 299.414062 504.011719 298.703125 505.214844 296.894531 502.886719 C 295.972656 501.695312 296.273438 501.542969 296.898438 484.027344 Z M 296.898438 484.027344 " fill-opacity="1" fill-rule="evenodd"/><g clip-path="url(#16203b2857)"><path fill="#ffffff" d="M 193.90625 468.050781 C 192.015625 487.113281 180.03125 498.871094 167.808594 503.78125 C 158.972656 507.332031 100.554688 520.152344 89.707031 474.09375 C 86.652344 461.144531 87.925781 453.113281 87.78125 316.222656 C 87.769531 305.601562 86.171875 265.453125 140.921875 265.679688 C 143.726562 265.691406 160.226562 264.375 176.664062 274.621094 C 194.101562 285.488281 194.117188 309.839844 194.121094 313.230469 C 194.210938 448.632812 194.101562 455.664062 193.90625 468.050781 Z M 193.90625 468.050781 " fill-opacity="1" fill-rule="evenodd"/></g><path fill="#ffffff" d="M 776.363281 292.195312 C 781.902344 306.808594 779.953125 307.332031 780.332031 436.085938 C 780.425781 468.808594 783.574219 493.707031 749.359375 505.460938 C 740.78125 508.410156 717.09375 508.089844 713.21875 507.144531 C 711.09375 506.625 698.566406 505.113281 687.699219 495.539062 C 671.34375 481.125 674.042969 453.457031 674.035156 437.082031 C 673.996094 314.808594 673.441406 314.832031 674.230469 304.230469 C 675.4375 288.023438 689.402344 271.132812 709.277344 267.351562 C 717.488281 265.789062 762.226562 258.191406 776.363281 292.195312 Z M 776.363281 292.195312 " fill-opacity="1" fill-rule="evenodd"/><path fill="#ffffff" d="M 330.707031 4.78125 C 375.332031 6.328125 376.554688 41.5 376.976562 44.488281 C 377.851562 50.671875 377.304688 178.699219 377.253906 190.367188 C 377.242188 193.839844 377.132812 219.480469 359.394531 229.910156 C 344.238281 238.820312 338.523438 237.808594 282.757812 237.707031 C 276.34375 237.691406 273.84375 238.730469 273.847656 232.320312 C 274.027344 6.019531 274.296875 5.925781 274.695312 5.507812 C 275.355469 4.808594 282.113281 4.808594 282.761719 4.808594 C 298.742188 4.800781 314.726562 4.789062 330.707031 4.78125 Z M 330.707031 4.78125 " fill-opacity="1" fill-rule="evenodd"/><path fill="#ffffff" d="M 459.726562 311.230469 C 459.734375 304.238281 459.746094 297.246094 459.753906 290.253906 C 459.785156 280.269531 459.699219 280.328125 459.691406 276.273438 C 459.683594 271.644531 459.9375 270.625 464.554688 270.511719 C 517.566406 269.238281 525.347656 271.003906 530.492188 272.171875 C 559.765625 278.8125 559.15625 293.710938 559.136719 329.210938 C 559.097656 395.382812 560.484375 396.78125 550.820312 408.414062 C 548.25 411.503906 550.148438 414.003906 550.367188 419.109375 C 550.777344 428.695312 551.914062 428.523438 552.417969 438.082031 C 553.441406 457.558594 560.316406 500.269531 559.003906 502.761719 C 557.871094 504.910156 515.882812 503.628906 515.679688 503.511719 C 512.121094 501.445312 513.792969 485.007812 512.421875 463.058594 C 509.945312 423.421875 513.082031 421.261719 508.542969 419.945312 C 502.304688 418.140625 506.230469 423.695312 504.785156 501.015625 C 504.714844 504.882812 497.996094 503.832031 492.515625 503.816406 C 461.257812 503.730469 459.824219 504.472656 459.734375 501.988281 C 459.703125 501.195312 459.722656 313.554688 459.726562 311.230469 Z M 459.726562 311.230469 " fill-opacity="1" fill-rule="evenodd"/><path fill="#ffffff" d="M 500.507812 4.800781 C 526.164062 4.769531 551.972656 2.335938 563.203125 21.699219 C 567.171875 28.542969 570.019531 33.449219 568.234375 120.449219 C 567.914062 135.992188 559.972656 142.042969 558.832031 144.582031 C 558.070312 146.269531 558.546875 146.402344 568.453125 235.316406 C 568.828125 238.660156 566.613281 238.222656 526.449219 237.734375 C 522.652344 237.6875 522.601562 236.046875 522.519531 217.339844 C 522.453125 202.90625 520.644531 203.023438 520.296875 158.410156 C 520.265625 154.460938 516.753906 153.097656 514.84375 155.636719 C 513.230469 157.78125 514.789062 226.890625 514.070312 235.285156 C 513.816406 238.265625 512.261719 237.707031 478.535156 237.753906 C 471.933594 237.761719 468.84375 239.90625 468.832031 233.320312 C 468.792969 215.171875 468.375 8.964844 469.097656 6.460938 C 469.636719 4.589844 470.425781 4.675781 500.507812 4.800781 Z M 500.507812 4.800781 " fill-opacity="1" fill-rule="evenodd"/><path fill="#ffffff" d="M 567.054688 303.238281 C 567.078125 272.5625 567.085938 272.566406 567.171875 272.203125 C 567.746094 269.828125 574.46875 270.445312 580.414062 270.429688 C 629.804688 270.296875 635.851562 270.457031 643.320312 273.332031 C 667.835938 282.769531 666.253906 297.699219 666.246094 328.210938 C 666.234375 394.285156 668.035156 395.859375 657.789062 408.519531 C 653.992188 413.214844 665.011719 482.425781 666.390625 501.003906 C 666.648438 504.5 664.398438 503.859375 642.339844 503.8125 C 624.757812 503.777344 620.746094 505.75 620.652344 497.007812 C 620.621094 494.210938 620.351562 469.296875 619.460938 462.042969 C 617.320312 444.582031 620.207031 421.644531 616.390625 420.058594 C 610.878906 417.769531 612.316406 422.921875 612.410156 480.03125 C 612.445312 500.832031 613.574219 503.820312 607.378906 503.832031 C 568.480469 503.886719 568.222656 503.855469 567.507812 502.953125 C 566.984375 502.289062 567.078125 502.144531 567.054688 303.238281 Z M 567.054688 303.238281 " fill-opacity="1" fill-rule="evenodd"/><path fill="#ffffff" d="M 392.6875 402.019531 C 388.28125 402.007812 372.796875 407.265625 369.769531 409.285156 C 346.808594 424.609375 406.855469 434.3125 407.667969 444.070312 C 407.898438 446.871094 408.183594 450.300781 374.679688 456.214844 C 347.527344 461.007812 346.460938 461.253906 345.738281 459.042969 C 345.054688 456.964844 345.492188 324.894531 345.53125 313.226562 C 345.734375 251.339844 419.890625 261.75 437.136719 276.761719 C 452.894531 290.476562 451.933594 308.914062 451.953125 316.222656 C 452.3125 458.792969 452.871094 458.847656 451.035156 471.101562 C 444.019531 517.914062 384.835938 507.660156 377.714844 505.65625 C 369.15625 503.25 360.710938 497.136719 360.472656 496.085938 C 359.339844 491.035156 410.710938 473.273438 424.378906 463.753906 C 457.800781 440.480469 408.691406 428.164062 391.710938 421.882812 C 362.269531 410.996094 392.898438 404.121094 393.277344 403.738281 C 393.4375 403.570312 392.757812 403.304688 392.921875 403.136719 C 392.84375 402.765625 392.765625 402.390625 392.6875 402.019531 Z M 392.6875 402.019531 " fill-opacity="1" fill-rule="evenodd"/><path fill="#ffffff" d="M 165.785156 208.347656 C 166.386719 198.859375 175.832031 125.796875 186.277344 34.609375 C 189.539062 6.121094 189.476562 4.972656 191.894531 4.859375 C 193.828125 4.765625 239.480469 4.773438 239.792969 4.792969 C 241.007812 4.863281 242.363281 4.9375 243.3125 19.597656 C 243.972656 29.777344 249.949219 73.828125 250.15625 76.480469 C 250.894531 85.804688 254.34375 111.207031 254.363281 111.503906 C 255.417969 126.316406 256.234375 126.199219 256.324219 127.484375 C 257.070312 138.558594 257.816406 138.394531 258.589844 149.4375 C 258.652344 150.292969 268.914062 235.078125 268.929688 235.316406 C 269.105469 238.46875 263.578125 237.761719 250.792969 237.742188 C 223.316406 237.699219 221.710938 238.3125 221.554688 235.339844 C 221.464844 233.660156 220.777344 220.605469 220.78125 214.34375 C 220.78125 206.046875 220.527344 202.355469 212.71875 204.984375 C 209.570312 206.046875 211.050781 221.140625 210.242188 235.359375 C 210.058594 238.570312 204.425781 237.707031 203.855469 237.707031 C 165.265625 237.730469 165.246094 238.085938 163.828125 237.449219 C 161.679688 236.488281 165.269531 215.816406 165.785156 208.347656 Z M 165.785156 208.347656 " fill-opacity="1" fill-rule="evenodd"/><path fill="#ffffff" d="M 576.292969 165.398438 C 576.308594 164.980469 576.480469 160.675781 577.371094 160.3125 C 580.1875 159.164062 580.226562 159.632812 615.382812 160.046875 C 620.210938 160.101562 618.894531 162.878906 618.785156 203.367188 C 618.753906 213.917969 627.644531 210.863281 627.984375 206.3125 C 631.601562 157.628906 601.863281 120.890625 595.863281 112.121094 C 593.246094 108.296875 577.453125 85.21875 576.5 57.523438 C 575.671875 33.332031 575.261719 17.183594 591.101562 7.109375 C 606.039062 -2.394531 669.109375 -10.054688 670.394531 37.546875 C 671.257812 69.488281 670.671875 70.136719 668.253906 71.363281 C 667.226562 71.882812 631.359375 71.605469 630.363281 71.449219 C 625.832031 70.746094 630.527344 35.691406 627.007812 32.996094 C 623.566406 30.363281 618.128906 33.269531 619.78125 45.519531 C 623.757812 74.945312 635.046875 84.691406 650.976562 109.699219 C 667.101562 135.011719 670.742188 168.398438 670.875 171.421875 C 672.332031 204.527344 673.734375 218.316406 664.050781 229.097656 C 646.816406 248.273438 600.753906 245.269531 585.769531 230.929688 C 574.863281 220.484375 576.214844 216.757812 576.292969 165.398438 Z M 576.292969 165.398438 " fill-opacity="1" fill-rule="evenodd"/><path fill="#ffffff" d="M 776.183594 149.0625 C 869.058594 148.980469 869.050781 148.496094 877.085938 149.269531 C 917.421875 153.152344 916.394531 212.691406 896.644531 228.875 C 889.535156 234.703125 883.488281 235.511719 877.070312 237.347656 C 874.355469 238.128906 794.6875 237.507812 750.21875 237.722656 C 708.589844 237.925781 710.820312 196.359375 711.066406 188.371094 C 711.644531 169.535156 722.367188 154.820312 735.1875 151.292969 C 744.554688 148.710938 744.628906 149.007812 776.183594 149.0625 Z M 776.183594 149.0625 " fill-opacity="1" fill-rule="evenodd"/><path fill="#ffffff" d="M 454.5625 4.773438 C 460.054688 4.875 460.042969 4.722656 460.488281 4.882812 C 461.773438 5.351562 461.738281 5.414062 462.222656 6.671875 C 462.683594 7.863281 462.726562 31.414062 462.488281 34.546875 C 461.894531 42.410156 436.707031 34.710938 433.785156 39.648438 C 432.800781 41.316406 433.304688 107.867188 433.464844 108.503906 C 434.371094 112.109375 453.347656 109.117188 455.355469 110.734375 C 456.921875 111.996094 456.003906 133.523438 455.976562 133.601562 C 454.945312 136.8125 436.195312 132.582031 433.699219 136.496094 C 432.855469 137.816406 433.105469 203.039062 433.53125 204.375 C 434.789062 208.285156 458.554688 204.808594 461.402344 206.628906 C 463.816406 208.171875 462.933594 215.273438 462.933594 215.347656 C 462.753906 233.402344 463.90625 237.613281 460.597656 237.703125 C 452.589844 237.914062 395.308594 237.835938 389.628906 237.828125 C 384.078125 237.820312 385.289062 234.050781 385.335938 225.328125 C 385.515625 193.265625 385.003906 8.046875 385.476562 6.53125 C 386.273438 3.960938 387.519531 4.988281 454.5625 4.773438 Z M 454.5625 4.773438 " fill-opacity="1" fill-rule="evenodd"/><path fill="#ffffff" d="M 130.9375 4.800781 C 157.390625 4.761719 158.988281 4.042969 159.609375 7.617188 C 159.769531 8.554688 159.703125 34.871094 159.542969 35.488281 C 157.78125 42.371094 130.265625 33.292969 130.058594 41.554688 C 129.957031 45.5625 130.117188 88.210938 129.953125 106.46875 C 129.902344 112.039062 136.238281 109.953125 150.914062 110.289062 C 152.699219 110.332031 154.59375 110.785156 153.351562 132.476562 C 152.949219 139.488281 130.039062 129.332031 130.035156 139.433594 C 130.027344 158.410156 130.019531 177.386719 130.007812 196.363281 C 130.011719 203.445312 128.882812 206.179688 135.929688 206.183594 C 151.511719 206.195312 160 204.777344 160.109375 209.339844 C 160.160156 211.554688 160.726562 235.40625 159.628906 237.03125 C 158.792969 238.269531 84.113281 238.074219 83.148438 237.144531 C 82.042969 236.074219 82.566406 235.757812 82.371094 40.546875 C 82.335938 5.902344 82.574219 5.417969 84.042969 4.832031 C 84.484375 4.660156 84.4375 4.746094 102.972656 4.796875 C 112.292969 4.796875 121.613281 4.796875 130.9375 4.800781 Z M 130.9375 4.800781 " fill-opacity="1" fill-rule="evenodd"/><g clip-path="url(#8c5716582b)"><path fill="#ffffff" d="M 22.0625 503.84375 C 16.511719 503.542969 18.195312 500.585938 18.089844 462.054688 C 17.757812 341.0625 18.78125 307.128906 17.167969 306.136719 C 13.296875 303.757812 1.289062 308.371094 1.1875 302.238281 C 0.71875 273.847656 0.277344 273.703125 1.566406 271.621094 C 2.617188 269.921875 3.277344 270.726562 77.003906 270.453125 C 81.578125 270.4375 82.625 270.726562 82.601562 275.265625 C 82.476562 298.527344 83.933594 305.199219 80.011719 305.378906 C 73.519531 305.671875 65.707031 303.792969 65.417969 309.253906 C 64.792969 321.015625 66.066406 500.617188 64.71875 502.800781 C 63.855469 504.203125 63.34375 503.695312 22.0625 503.84375 Z M 22.0625 503.84375 " fill-opacity="1" fill-rule="evenodd"/></g><path fill="#ffffff" d="M 9.082031 4.785156 C 45.902344 4.832031 45.832031 4.761719 49.03125 4.78125 C 53.292969 4.804688 51.980469 12.460938 51.984375 12.578125 C 52.789062 106.515625 50.828125 106.433594 51.847656 200.367188 C 51.929688 207.929688 74.273438 199.996094 75.296875 206.300781 C 75.34375 206.570312 75.371094 234.308594 75.320312 235.34375 C 75.191406 238.15625 73.683594 237.769531 38.046875 237.738281 C 6.691406 237.710938 5.085938 238.398438 4.777344 235.339844 C 4.757812 235.175781 4.746094 14.835938 4.746094 14.578125 C 4.796875 8.023438 2.605469 5.203125 9.082031 4.785156 Z M 9.082031 4.785156 " fill-opacity="1" fill-rule="evenodd"/><path fill="#ffffff" d="M 718.25 143.367188 C 712.703125 143.117188 714.054688 140.898438 714.046875 135.441406 C 713.96875 80.738281 714.238281 80.363281 715.386719 79.78125 C 715.878906 79.53125 739.195312 78.132812 740.296875 80.457031 C 741.71875 83.453125 739.292969 102.550781 742.15625 103.617188 C 744.046875 104.324219 759.351562 103.765625 795.160156 104.007812 C 798.664062 104.035156 805.363281 104.957031 805.480469 101.519531 C 805.96875 86.953125 803.835938 84.578125 808.136719 84.398438 C 810.019531 84.320312 830.023438 83.488281 831.722656 84.945312 C 833.964844 86.871094 829.847656 103.734375 835.085938 103.882812 C 845.949219 104.199219 904.753906 103.335938 906.027344 104.476562 C 907.046875 105.386719 906.875 105.65625 906.835938 136.433594 C 906.835938 136.972656 906.828125 142.441406 905.871094 143.089844 C 905.140625 143.585938 886.738281 143.253906 718.25 143.367188 Z M 718.25 143.367188 " fill-opacity="1" fill-rule="evenodd"/><path fill="#fa6742" d="M 728.34375 467.503906 C 721.214844 467.769531 722.578125 463.90625 722.492188 428.09375 C 722.46875 418.667969 722.210938 313.003906 722.667969 310.277344 C 723.492188 305.347656 732.242188 300.960938 732.390625 315.222656 C 732.398438 315.863281 732.441406 456.296875 732.371094 459.058594 C 732.199219 465.929688 729.039062 467.21875 728.34375 467.503906 Z M 728.34375 467.503906 " fill-opacity="1" fill-rule="evenodd"/><path fill="#fa6742" d="M 145.929688 385.144531 C 146.15625 457.75 146.992188 457.832031 145.570312 463.976562 C 144.683594 467.804688 136.6875 471.292969 136.648438 461.054688 C 136.605469 448.90625 136.121094 312.238281 136.808594 309.210938 C 138.042969 303.773438 145.304688 304.988281 145.808594 310.246094 C 146.378906 316.210938 145.984375 316.207031 145.929688 385.144531 Z M 145.929688 385.144531 " fill-opacity="1" fill-rule="evenodd"/><path fill="#fa6742" d="M 324.789062 43.140625 C 328.996094 44.34375 328.742188 45.773438 328.796875 68.515625 C 329.089844 186.148438 329.496094 186.152344 328.496094 196.328125 C 328.152344 199.808594 319.679688 202.824219 319.601562 196.367188 C 318.804688 128.398438 319.5 59.441406 319.621094 47.535156 C 319.667969 42.65625 321.25 42.753906 324.789062 43.140625 Z M 324.789062 43.140625 " fill-opacity="1" fill-rule="evenodd"/><path fill="#fa6742" d="M 767.191406 197.066406 C 749.359375 197.03125 744 198.167969 743.652344 193.367188 C 743.285156 188.378906 746.320312 189.539062 785.171875 189.449219 C 872.800781 189.246094 878.972656 187.289062 876.65625 194.242188 C 875.625 197.339844 874.476562 197.050781 837.109375 197.09375 C 813.804688 197.082031 790.5 197.074219 767.191406 197.066406 Z M 767.191406 197.066406 " fill-opacity="1" fill-rule="evenodd"/><path fill="#fa6742" d="M 513.210938 389.054688 C 509.457031 395.878906 504.800781 392.0625 504.734375 389.128906 C 504.675781 386.421875 504.605469 310.0625 504.890625 306.269531 C 505.21875 301.984375 513.304688 301.550781 513.710938 309.21875 C 513.742188 309.867188 513.988281 382.546875 513.699219 386.167969 C 513.679688 386.398438 513.664062 386.378906 513.210938 389.054688 Z M 513.210938 389.054688 " fill-opacity="1" fill-rule="evenodd"/><path fill="#fa6742" d="M 620.589844 389.203125 C 620.273438 389.738281 617.15625 395.035156 613.417969 392.085938 C 611.46875 390.546875 612.636719 365.144531 612.3125 311.230469 C 612.3125 311.128906 610.878906 301.570312 617.304688 303.496094 C 623.375 305.316406 620.851562 319.136719 621.347656 377.152344 C 621.429688 386.503906 621.082031 386.421875 620.589844 389.203125 Z M 620.589844 389.203125 " fill-opacity="1" fill-rule="evenodd"/><path fill="#fa6742" d="M 522.515625 41.535156 C 522.875 46.792969 523.667969 121.496094 522.078125 124.238281 C 520.21875 127.449219 514.292969 129.007812 514.238281 123.449219 C 514.175781 116.742188 513.484375 42.554688 514.71875 39.648438 C 515.523438 37.75 518.21875 38.113281 518.542969 38.160156 C 521.367188 38.539062 521.164062 39.039062 522.515625 41.535156 Z M 522.515625 41.535156 " fill-opacity="1" fill-rule="evenodd"/><path fill="#fa6742" d="M 217.625 113.460938 C 217.402344 155.804688 222.519531 177.179688 217.792969 178.117188 C 209.550781 179.753906 212.242188 171.960938 212.308594 161.414062 C 212.414062 144.605469 214.375 134.484375 213.894531 103.472656 C 213.875 102.332031 214.503906 90.515625 214.5625 89.386719 C 214.582031 89.039062 217.554688 86.277344 217.648438 92.492188 C 217.652344 92.714844 217.433594 103.488281 217.625 113.460938 Z M 217.625 113.460938 " fill-opacity="1" fill-rule="evenodd"/><path fill="#fa6742" d="M 403.503906 339.050781 C 403.304688 340.667969 402.863281 342.734375 403.871094 342.757812 C 404.886719 342.785156 413.425781 335 418.855469 332.3125 C 424.835938 329.355469 424.433594 328.808594 430.195312 325.476562 C 434.15625 323.183594 435.179688 325.890625 433.558594 327.480469 C 432.15625 328.855469 431.960938 328.613281 413.730469 342.191406 C 409.75 345.15625 416.394531 343.203125 419.398438 344.691406 C 423.792969 346.867188 424.003906 345.121094 428.886719 344.96875 C 437.71875 344.695312 435.847656 348.859375 434.292969 349.539062 C 432.789062 350.195312 432.566406 349.144531 414.003906 353.375 C 409.65625 354.363281 412.460938 357.148438 415.015625 362.089844 C 418.433594 368.707031 424.015625 372.769531 418.777344 373.195312 C 415.261719 373.480469 412.660156 367.503906 405.898438 362.863281 C 404.828125 362.128906 402.050781 358.417969 401.851562 361.382812 C 401.621094 364.792969 399.019531 376.542969 397.292969 377.328125 C 393.234375 379.164062 395.066406 370.160156 395.144531 365.445312 C 395.164062 364.296875 395.160156 363.148438 395.175781 362.003906 C 395.226562 358.585938 396.472656 353.796875 394.484375 355.269531 C 377.378906 367.929688 376.125 376.976562 371.433594 369.902344 C 368.574219 365.585938 388.269531 353.671875 388.199219 352.238281 C 388.109375 350.4375 373.886719 353.425781 373.59375 347.066406 C 373.355469 341.953125 386.789062 347.4375 384.21875 344.226562 C 382.441406 342.007812 382.019531 342.367188 378.695312 337.457031 C 370.757812 325.722656 371.464844 324.84375 372.5 324.261719 C 377.003906 321.742188 381.671875 333.753906 387.214844 335.195312 C 393.277344 336.769531 397.386719 342.472656 398.140625 339.089844 C 399.839844 331.484375 398.691406 308.855469 404.492188 314.914062 C 405.917969 316.40625 407.347656 316.84375 403.503906 339.050781 Z M 403.503906 339.050781 " fill-opacity="1" fill-rule="evenodd"/><g clip-path="url(#9b82ca6a79)"><g clip-path="url(#668cb55312)"><g transform="matrix(1, 0, 0, 1, 794, 58)"><g clip-path="url(#aaa2a73a94)"><g clip-path="url(#d93d93a0f5)"><g clip-path="url(#6d53023c3f)"><path fill="#ffffff" d="M 0.132812 0.734375 L 53.777344 0.734375 L 53.777344 47.601562 L 0.132812 47.601562 Z M 0.132812 0.734375 " fill-opacity="1" fill-rule="nonzero"/></g></g></g></g></g></g></svg>