<?xml version='1.0' encoding='UTF-8' standalone='yes'?>
<!DOCTYPE svg PUBLIC "-//W3C//DTD SVG 1.1//EN" "http://www.w3.org/Graphics/SVG/1.1/DTD/svg11.dtd">
<svg xmlns="http://www.w3.org/2000/svg" xmlns:xlink="http://www.w3.org/1999/xlink" xmlns:serif="http://www.serif.com/" width="100%" height="100%" viewBox="0 0 925 491" version="1.1" xml:space="preserve" style="fill-rule:evenodd;clip-rule:evenodd;stroke-linejoin:round;stroke-miterlimit:2;">
    <g transform="matrix(1,0,0,1,-7634.555489,-1025.528069)">
        <g transform="matrix(1.229492,0,0,1.229492,7437,671)">
            <path d="M501.244,460.513C501.241,454.82 501.213,410.737 541.598,401.91C570.597,395.571 584.964,413.339 585.486,413.346C586.704,413.362 586.103,412.477 586.208,364.5C586.217,360.171 585.212,358.401 589.498,358.369C611.317,358.208 612.941,357.787 613.136,360.534C613.206,361.511 613.181,507.317 613.137,508.468C613.061,510.445 612.105,510.907 588.494,510.576C583.736,510.509 588.228,496.139 584.377,500.269C563.357,522.809 506.257,516.585 501.244,460.513Z M560.467,488.245C511.603,489.151 521.775,419.324 561.53,425.281C592.877,429.977 597.541,481.993 560.467,488.245Z" style="fill:rgb(255,255,255);"/>
        </g>
        <g transform="matrix(1.229492,0,0,1.229492,7437,671)">
            <g transform="matrix(1,0,0,1,197.464984,-13.108669)">
                <path d="M308.582,662.282C303.984,660.45 272.85,648.04 271.875,612.484C270.154,549.747 336.254,540.753 360.367,561.678C364.19,564.995 363.395,560.772 363.443,556.497C363.481,553.041 367.531,553.889 369.503,553.88C387.355,553.797 390.142,552.821 390.188,557.504C390.271,565.742 391.134,652.33 390.198,660.483C389.895,663.117 388.724,663.029 366.486,662.86C359.885,662.81 366.149,649.753 361.737,652.843C355.125,657.474 343.529,671.912 308.582,662.282Z M362.413,599.524C370.837,654.932 298.475,653.592 298.489,608.5C298.5,571.808 349.621,560.672 362.413,599.524Z" style="fill:rgb(255,255,255);"/>
            </g>
        </g>
        <g transform="matrix(1.229492,0,0,1.229492,7437,671)">
            <g transform="matrix(1,0,0,1,197.464984,-13.108669)">
                <path d="M514.443,595.485C511.467,612.35 515.02,660.354 512.496,662.494C511.091,663.684 510.889,663.33 489.482,662.84C485.733,662.754 486.648,660.761 486.638,637.5C486.624,602.151 490.397,578.489 464.472,575.907C454.798,574.944 437.775,581.277 437.066,602.476C436.589,616.748 437.497,661.164 436.341,662.346C434.594,664.131 414.376,662.997 412.469,662.89C408.448,662.665 410.428,660.383 410.037,638.5C410.033,638.295 409.945,556.776 410.175,555.399C410.637,552.638 435.556,553.711 436.369,554.603C437.904,556.286 434.444,566.94 439.855,561.974C456.175,546.995 489.308,547.614 503.221,566.714C504.84,568.935 505.36,570.316 507.09,568.133C527.266,542.675 588.202,539.957 589.536,601.499C589.641,606.358 590.804,660.012 589.16,662.24C588.617,662.976 563.286,664.053 562.695,661.453C560.792,653.098 566.875,598.644 558.125,585.762C546.683,568.916 521.973,574.923 515.701,591.577C515.218,592.858 514.925,594.205 514.443,595.485Z" style="fill:rgb(255,255,255);"/>
            </g>
        </g>
        <g transform="matrix(1.229492,0,0,1.229492,7437,671)">
            <path d="M697.464,510.361C608.83,529.35 603.135,403.922 677.507,400.746C732.2,398.411 736.025,462.633 730.56,464.631C728.226,465.483 654.803,463.928 653.505,465.504C650.555,469.084 666.04,496.993 694.354,486.12C704.162,482.354 705.891,473.757 710.321,477.711C722.832,488.882 727.021,490.328 724.267,493.303C713.076,505.392 706.889,507.203 697.464,510.361Z M697.825,431.166C709.092,444.115 704.768,446.24 703.479,446.262C699.505,446.332 655.467,447.11 653.802,446.034C649.202,443.06 667.361,415.692 691.382,426.747C694.979,428.402 694.781,428.584 697.825,431.166Z" style="fill:rgb(255,255,255);"/>
        </g>
        <g transform="matrix(1.229492,0,0,1.229492,7437,671)">
            <path d="M351.404,510.205C306.629,520.701 291.958,490.173 291.701,465.499C291.65,460.554 291.074,405.229 291.941,403.68C292.902,401.964 293.377,401.92 316.496,402.565C319.885,402.66 318.601,405.085 318.832,462.493C318.984,500.155 368.068,495.38 368.534,460.5C368.92,431.573 367.666,403.776 369.667,402.835C369.779,402.782 394.368,401.515 395.363,403.568C395.935,404.747 395.538,436.64 395.653,482.499C395.72,509.167 395.941,510.468 393.503,510.529C369.901,511.118 368.995,510.441 368.906,508.468C368.637,502.529 370.195,496.677 366.18,501.096C361.828,505.885 352.687,509.673 351.404,510.205Z" style="fill:rgb(255,255,255);"/>
        </g>
        <g transform="matrix(1.229492,0,0,1.229492,7437,671)">
            <path d="M846.569,510.177C844.429,509.595 829.211,505.457 820.719,500.181C818.272,498.66 822.142,493.143 822.931,491.749C830.129,479.021 830.491,476.667 834.202,478.963C861.271,495.706 882.387,488.82 884.723,482.592C892.861,460.9 819.257,476.107 824.901,430.542C830.576,384.727 904.933,403.992 911.295,411.671C912.026,412.554 909.25,417.332 908.987,417.784C900.687,432.067 900.242,434.061 897.451,432.6C896.39,432.044 895.39,431.375 894.324,430.827C877.622,422.232 857.203,421.975 852.844,429.68C845.784,442.156 873.637,443.96 891.492,450.522C921.21,461.444 912.518,490.167 907.201,497.278C890.075,520.184 848.678,510.521 846.569,510.177Z" style="fill:rgb(255,255,255);"/>
        </g>
        <g transform="matrix(1.229492,0,0,1.229492,7437,671)">
            <g transform="matrix(1,0,0,1,197.464984,-13.108669)">
                <path d="M165.462,635.521C164.678,633.868 159.865,623.721 159.217,613.523C155.126,549.153 234.508,532.588 264.07,573.748C265.108,575.194 264.801,576.142 247.822,588.948C243.058,592.54 240.965,578.157 222.481,575.65C181.027,570.027 172.042,633.206 211.567,641.134C234.247,645.684 244.01,626.673 246.601,627.103C247.166,627.196 263.959,640.584 264.105,640.789C265.74,643.068 250.311,664.781 219.498,665.441C180.652,666.273 167.533,639.029 165.462,635.521Z" style="fill:rgb(255,255,255);"/>
            </g>
        </g>
        <g transform="matrix(1.229492,0,0,1.229492,7437,671)">
            <path d="M466.5,358.339C486.029,358.293 489.244,357.673 489.337,360.518C489.377,361.731 489.39,506.48 489.326,508.481C489.233,511.422 482.835,510.562 482.5,510.561C466.279,510.536 462.394,511.212 462.289,508.52C461.846,497.168 462.238,497.221 462.228,366.502C462.228,360.869 460.831,358.589 466.5,358.339Z" style="fill:rgb(255,255,255);"/>
        </g>
        <g transform="matrix(1.229492,0,0,1.229492,7437,671)">
            <path d="M770.499,510.558C751.59,510.556 749.377,510.658 748.579,510.32C747.469,509.85 747.458,504.974 747.457,504.5C747.438,496.5 747.229,406.823 747.546,404.506C747.816,402.523 748.507,401.615 772.494,402.565C777.596,402.766 772.284,420.38 777.176,415.132C790.833,400.479 811.973,401.622 814.605,402.121C816.524,402.485 816.628,403.23 816.242,426.48C816.17,430.794 805.727,426.169 794.611,429.856C771.328,437.579 775.002,452.692 774.826,502.498C774.806,508.055 776.072,510.283 770.499,510.558Z" style="fill:rgb(255,255,255);"/>
        </g>
        <g transform="matrix(1.229492,0,0,1.229492,7437,671)">
            <g transform="matrix(1,0,0,1,197.464984,-13.108669)">
                </g>
        </g>
        <g transform="matrix(1.229492,0,0,1.229492,7437,671)">
            <path d="M419.501,510.586C412.693,510.322 414.989,507.261 415.023,500.501C415.058,493.381 414.758,493.468 414.965,411.505C414.967,410.786 414.987,403.015 416.543,402.663C418.256,402.277 418.22,402.457 438.5,402.522C444.051,402.539 442.481,404.988 442.498,410.5C442.522,418.414 442.797,508.172 442.308,509.423C441.738,510.877 439.231,510.542 419.501,510.586Z" style="fill:rgb(255,255,255);"/>
        </g>
        <g transform="matrix(1.229492,0,0,1.229492,7437,671)">
            </g>
        <g transform="matrix(1.229492,0,0,1.229492,7437,671)">
            </g>
        <g transform="matrix(1.229492,0,0,1.229492,7636,1821)">
            <g transform="matrix(1,0,0,1,54.266671,-962.107327)">
                <path d="M693.349,638.442C691.227,643.553 676.528,678.965 633.545,673.206C614.318,670.629 608.618,658.323 608.76,663.537C608.867,667.502 610.067,711.801 608.229,713.111C607.842,713.386 584.566,714.51 583.748,712.402C583.525,711.828 583.304,617.856 583.914,612.554C591.815,543.827 701.617,550.576 696.314,624.483C695.802,631.628 695.382,631.505 693.349,638.442Z M670.953,619.502C668.349,666.602 602.159,655.777 608.93,614.56C614.734,579.232 668.312,577.457 670.953,619.502Z" style="fill:rgb(255,255,255);"/>
            </g>
        </g>
        <g transform="matrix(1.229492,0,0,1.229492,7636,1821)">
            <g transform="matrix(1,0,0,1,54.266671,-962.107327)">
                </g>
        </g>
        <g transform="matrix(1,0,0,1,-93.948541,0)">
            <g transform="matrix(1.229492,0,0,1.229492,7545.115242,648.222372)">
                <path d="M264.517,361.821C265.234,361.704 270.191,360.892 273.156,359.01C273.597,358.73 276.92,355.164 278.283,355.896C285.377,359.703 274.895,366.38 267.498,367.49C238.022,371.914 232.141,331.957 254.652,323.973C276.787,316.122 286.907,340.014 284.076,346.356C282.786,349.244 251.06,346.862 248.639,347.826C247.577,348.249 247.21,361.273 264.517,361.821Z M253.475,331.466C265.844,323.45 276.121,332.342 277.125,340.5C277.385,342.618 275.994,342.517 250.506,342.332C245.527,342.296 248.51,335.627 253.475,331.466Z" style="fill:rgb(255,255,255);"/>
            </g>
        </g>
        <g transform="matrix(1,0,0,1,-93.948541,0)">
            <g transform="matrix(1.229492,0,0,1.229492,7545.115242,648.222372)">
                <path d="M197.079,362.499C196.802,364.517 198.705,367.297 192.521,367.097C189.732,367.007 190.308,365.458 190.261,333.501C190.223,308.305 190.054,307.059 192.531,306.906C198.338,306.548 197.057,309.669 197.087,321.499C197.098,325.995 195.969,331.432 199.502,327.503C204.662,321.765 231.197,315.322 231.375,343.499C231.512,365.285 232.265,365.811 230.616,366.658C215.569,374.39 236.74,330.43 212.492,328.69C204.289,328.102 200.263,333.65 199.597,334.567C196.511,338.82 197.057,344.805 197.079,362.499Z" style="fill:rgb(255,255,255);"/>
            </g>
        </g>
        <g transform="matrix(1,0,0,1,-93.948541,0)">
            <g transform="matrix(1.229492,0,0,1.229492,7545.115242,648.222372)">
                <path d="M157.106,359.649C155.309,353.454 156.028,353.405 155.916,332.49C155.887,327.087 150.013,331.666 149.274,327.543C148.152,321.282 155.53,325.764 155.876,321.552C156.469,314.344 153.309,310.658 160.489,310.719C164.272,310.751 162.294,321.237 162.879,322.384C163.483,323.566 170.805,323.56 171.501,323.56C177.563,323.555 180.859,321.676 179.925,327.612C179.429,330.764 165.176,328.465 163.539,329.559C162.703,330.118 162.7,335.019 162.699,335.499C162.687,351.63 161.76,358.379 166.411,360.669C171.245,363.05 175.552,360.531 176.444,360.294C178.485,359.75 182.524,364.227 177.413,366.303C163.251,372.058 157.864,361.181 157.106,359.649Z" style="fill:rgb(255,255,255);"/>
            </g>
        </g>
        <g transform="matrix(1,0,0,1,-93.948541,0)">
            <g transform="matrix(1.229492,0,0,1.229492,7545.115242,648.222372)">
                </g>
        </g>
        <g transform="matrix(1,0,0,1,-93.948541,0)">
            <g transform="matrix(0.894085,0,0,1.043246,7613.991332,902.812537)">
                <path d="M267.476,375.347C249.853,376.945 222.983,376.203 221.712,375.192C217.943,372.195 221.164,368.568 237.025,331.284C262.312,271.839 262.05,271.365 261.226,269.609C259.576,266.095 258.309,266.922 204.5,266.755C191.401,266.714 191.916,270.257 181.87,292.662C170.523,317.971 170.113,318.129 170.948,320.36C172.178,323.648 173.454,323.011 211.498,322.985C218.985,322.98 222.352,323.796 219.236,331.387C201.173,375.391 199.569,375.617 195.545,375.945C194.176,376.056 133.555,376.421 131.42,375.762C128.123,374.744 128.089,371.005 128.084,370.507C128.084,370.457 128.061,213.923 128.106,212.495C128.351,204.635 131.978,205.75 161.499,205.777C247.171,205.857 249.324,204.089 264.187,214.941C273.855,222 299.539,251.572 271.617,287.597C266.779,293.838 286.025,290.098 297.739,314.386C306.835,333.246 299.898,368.03 267.476,375.347Z M158.579,245.7C173.43,238.838 167.141,225.055 172.629,228.344C173.128,228.643 172.958,228.713 175.376,236.545C179.018,248.342 191.061,246.235 191.663,249.453C192.116,251.878 190.661,251.116 183.732,253.982C174.934,257.622 173.827,271.967 171.479,271.91C170.38,271.883 168.585,266.067 168.417,265.526C163.518,249.653 150.163,253.893 150.522,249.503C150.613,248.391 157.903,245.928 158.579,245.7Z" style="fill:rgb(255,255,255);"/>
            </g>
        </g>
        <g transform="matrix(1,0,0,1,-93.948541,0)">
            <g transform="matrix(0.894085,0,0,1.043246,7613.991332,902.812537)">
                </g>
        </g>
    </g>
</svg>