<svg xmlns="http://www.w3.org/2000/svg" xmlns:xlink="http://www.w3.org/1999/xlink" width="377" zoomAndPan="magnify" viewBox="0 0 282.75 409.499983" height="546" preserveAspectRatio="xMidYMid meet" version="1.0"><defs><clipPath id="5732b9b173"><path d="M 0.046875 110.667969 L 243.074219 110.667969 L 243.074219 398 L 0.046875 398 Z M 0.046875 110.667969 " clip-rule="nonzero"/></clipPath><clipPath id="627c3f9689"><path d="M 243.074219 185.578125 L 243.074219 322.515625 C 243.074219 363.886719 209.539062 397.425781 168.167969 397.425781 L 74.957031 397.425781 C 33.585938 397.425781 0.046875 363.886719 0.046875 322.515625 L 0.046875 185.578125 C 0.046875 144.207031 33.585938 110.667969 74.957031 110.667969 L 168.167969 110.667969 C 209.539062 110.667969 243.074219 144.207031 243.074219 185.578125 Z M 243.074219 185.578125 " clip-rule="nonzero"/></clipPath><clipPath id="95e32e57bd"><path d="M 0.046875 0.667969 L 243.074219 0.667969 L 243.074219 287.433594 L 0.046875 287.433594 Z M 0.046875 0.667969 " clip-rule="nonzero"/></clipPath><clipPath id="ab4bba3800"><path d="M 243.074219 75.578125 L 243.074219 212.515625 C 243.074219 253.886719 209.539062 287.425781 168.167969 287.425781 L 74.957031 287.425781 C 33.585938 287.425781 0.046875 253.886719 0.046875 212.515625 L 0.046875 75.578125 C 0.046875 34.207031 33.585938 0.667969 74.957031 0.667969 L 168.167969 0.667969 C 209.539062 0.667969 243.074219 34.207031 243.074219 75.578125 Z M 243.074219 75.578125 " clip-rule="nonzero"/></clipPath><clipPath id="a702a8b19f"><rect x="0" width="244" y="0" height="288"/></clipPath><clipPath id="fdf4e60d6c"><path d="M 0.046875 0 L 281.703125 0 L 281.703125 408 L 0.046875 408 Z M 0.046875 0 " clip-rule="nonzero"/></clipPath></defs><g clip-path="url(#5732b9b173)"><g clip-path="url(#627c3f9689)"><g transform="matrix(1, 0, 0, 1, 0, 110)"><g clip-path="url(#a702a8b19f)"><g clip-path="url(#95e32e57bd)"><g clip-path="url(#ab4bba3800)"><path fill="#ffffff" d="M 0.046875 0.667969 L 243.074219 0.667969 L 243.074219 287.363281 L 0.046875 287.363281 Z M 0.046875 0.667969 " fill-opacity="1" fill-rule="nonzero"/></g></g></g></g></g></g><g clip-path="url(#fdf4e60d6c)"><path fill="#ffffff" d="M 124.582031 229.769531 C 112.992188 229.75 72.246094 238.589844 64.285156 241.980469 C 3.863281 267.730469 161.867188 284.035156 164 300.433594 C 164.617188 305.140625 165.363281 310.902344 77.207031 320.84375 C 5.753906 328.898438 2.953125 329.308594 1.046875 325.59375 C -0.746094 322.101562 0.40625 100.167969 0.503906 80.566406 C 1.042969 -23.429688 196.164062 -5.9375 241.542969 19.285156 C 283.011719 42.332031 280.488281 73.316406 280.535156 85.597656 C 281.472656 325.175781 282.949219 325.269531 278.117188 345.859375 C 259.65625 424.523438 103.925781 407.292969 85.191406 403.925781 C 62.671875 399.878906 40.445312 389.609375 39.824219 387.84375 C 36.84375 379.359375 172.011719 349.511719 207.976562 333.515625 C 295.917969 294.402344 166.699219 273.707031 122.015625 263.152344 C 44.546875 244.859375 125.140625 233.304688 126.136719 232.65625 C 126.5625 232.378906 124.777344 231.929688 125.203125 231.652344 C 124.996094 231.023438 124.789062 230.398438 124.582031 229.769531 Z M 124.582031 229.769531 " fill-opacity="1" fill-rule="evenodd"/><path fill="#fa6742" d="M 124.582031 229.769531 C 112.992188 229.75 72.246094 238.589844 64.285156 241.980469 C 3.863281 267.730469 161.867188 284.035156 164 300.433594 C 164.617188 305.140625 165.363281 310.902344 77.207031 320.84375 C 5.753906 328.898438 2.953125 329.308594 1.046875 325.59375 C -0.746094 322.101562 0.40625 100.167969 0.503906 80.566406 C 1.042969 -23.429688 196.164062 -5.9375 241.542969 19.285156 C 283.011719 42.332031 280.488281 73.316406 280.535156 85.597656 C 281.472656 325.175781 282.949219 325.269531 278.117188 345.859375 C 259.65625 424.523438 103.925781 407.292969 85.191406 403.925781 C 62.671875 399.878906 40.445312 389.609375 39.824219 387.84375 C 36.84375 379.359375 172.011719 349.511719 207.976562 333.515625 C 295.917969 294.402344 166.699219 273.707031 122.015625 263.152344 C 44.546875 244.859375 125.140625 233.304688 126.136719 232.65625 C 126.5625 232.378906 124.777344 231.929688 125.203125 231.652344 C 124.996094 231.023438 124.789062 230.398438 124.582031 229.769531 Z M 124.582031 229.769531 " fill-opacity="1" fill-rule="evenodd"/></g><path fill="#ffffff" d="M 157.738281 139.195312 C 157.40625 141.914062 156.664062 145.390625 158.355469 145.429688 C 160.0625 145.472656 174.410156 132.390625 183.53125 127.875 C 193.578125 122.90625 192.902344 121.988281 202.585938 116.386719 C 209.242188 112.539062 210.957031 117.082031 208.238281 119.753906 C 205.878906 122.070312 205.550781 121.660156 174.921875 144.476562 C 168.230469 149.460938 179.394531 146.179688 184.441406 148.675781 C 191.828125 152.335938 192.183594 149.398438 200.382812 149.144531 C 215.222656 148.683594 212.082031 155.679688 209.472656 156.820312 C 206.941406 157.925781 206.566406 156.164062 175.382812 163.269531 C 168.074219 164.933594 172.789062 169.613281 177.082031 177.914062 C 182.828125 189.03125 192.203125 195.863281 183.402344 196.578125 C 177.496094 197.058594 173.121094 187.011719 161.761719 179.210938 C 159.964844 177.980469 155.300781 171.746094 154.964844 176.726562 C 154.578125 182.457031 150.207031 202.203125 147.300781 203.519531 C 140.484375 206.605469 143.566406 191.476562 143.695312 183.554688 C 143.726562 181.625 143.71875 179.695312 143.75 177.765625 C 143.835938 172.027344 145.925781 163.980469 142.585938 166.453125 C 113.847656 187.730469 111.742188 202.925781 103.859375 191.039062 C 99.050781 183.789062 132.144531 163.765625 132.023438 161.359375 C 131.878906 158.335938 107.980469 163.351562 107.484375 152.671875 C 107.085938 144.078125 129.65625 153.292969 125.339844 147.894531 C 122.355469 144.167969 121.640625 144.773438 116.058594 136.519531 C 102.722656 116.804688 103.910156 115.328125 105.652344 114.351562 C 113.21875 110.113281 121.058594 130.296875 130.371094 132.71875 C 140.5625 135.363281 147.464844 144.945312 148.734375 139.261719 C 151.582031 126.484375 149.65625 88.460938 159.398438 98.640625 C 161.796875 101.144531 164.195312 101.882812 157.738281 139.195312 Z M 157.738281 139.195312 " fill-opacity="1" fill-rule="evenodd"/></svg>