<svg xmlns="http://www.w3.org/2000/svg" xmlns:xlink="http://www.w3.org/1999/xlink" width="337" zoomAndPan="magnify" viewBox="0 0 252.75 323.999988" height="432" preserveAspectRatio="xMidYMid meet" version="1.0"><defs><clipPath id="1aaecaf46e"><path d="M 0 23.578125 L 216.027344 23.578125 L 216.027344 310.492188 L 0 310.492188 Z M 0 23.578125 " clip-rule="nonzero"/></clipPath><clipPath id="878322ea4a"><path d="M 216.027344 79.773438 L 216.027344 254.207031 C 216.027344 269.113281 210.105469 283.40625 199.570312 293.945312 C 189.03125 304.484375 174.738281 310.402344 159.832031 310.402344 L 56.195312 310.402344 C 41.289062 310.402344 26.996094 304.484375 16.457031 293.945312 C 5.921875 283.40625 0 269.113281 0 254.207031 L 0 79.773438 C 0 64.871094 5.921875 50.578125 16.457031 40.039062 C 26.996094 29.5 41.289062 23.578125 56.195312 23.578125 L 159.832031 23.578125 C 174.738281 23.578125 189.03125 29.5 199.570312 40.039062 C 210.105469 50.578125 216.027344 64.871094 216.027344 79.773438 Z M 216.027344 79.773438 " clip-rule="nonzero"/></clipPath><clipPath id="04cef56046"><path d="M 0 0.578125 L 216.027344 0.578125 L 216.027344 287.414062 L 0 287.414062 Z M 0 0.578125 " clip-rule="nonzero"/></clipPath><clipPath id="60fb24f35f"><path d="M 216.027344 56.773438 L 216.027344 231.207031 C 216.027344 246.113281 210.105469 260.40625 199.570312 270.945312 C 189.03125 281.484375 174.738281 287.402344 159.832031 287.402344 L 56.195312 287.402344 C 41.289062 287.402344 26.996094 281.484375 16.457031 270.945312 C 5.921875 260.40625 0 246.113281 0 231.207031 L 0 56.773438 C 0 41.871094 5.921875 27.578125 16.457031 17.039062 C 26.996094 6.5 41.289062 0.578125 56.195312 0.578125 L 159.832031 0.578125 C 174.738281 0.578125 189.03125 6.5 199.570312 17.039062 C 210.105469 27.578125 216.027344 41.871094 216.027344 56.773438 Z M 216.027344 56.773438 " clip-rule="nonzero"/></clipPath><clipPath id="0057b09e25"><rect x="0" width="217" y="0" height="288"/></clipPath><clipPath id="cff289ab08"><path d="M 0 0.160156 L 252.5 0.160156 L 252.5 323.839844 L 0 323.839844 Z M 0 0.160156 " clip-rule="nonzero"/></clipPath></defs><g clip-path="url(#1aaecaf46e)"><g clip-path="url(#878322ea4a)"><g transform="matrix(1, 0, 0, 1, -0, 23)"><g clip-path="url(#0057b09e25)"><g clip-path="url(#04cef56046)"><g clip-path="url(#60fb24f35f)"><path fill="#ffffff" d="M 0 0.578125 L 216.027344 0.578125 L 216.027344 287.492188 L 0 287.492188 Z M 0 0.578125 " fill-opacity="1" fill-rule="nonzero"/></g></g></g></g></g></g><g clip-path="url(#cff289ab08)"><path fill="#5a189a" d="M 111.582031 182.492188 C 101.195312 182.476562 64.6875 189.488281 57.554688 192.179688 C 3.421875 212.613281 144.984375 225.554688 146.898438 238.566406 C 147.449219 242.300781 148.121094 246.871094 69.132812 254.761719 C 5.113281 261.152344 2.605469 261.480469 0.898438 258.53125 C -0.707031 255.761719 0.324219 79.648438 0.410156 64.089844 C 0.894531 -18.433594 175.714844 -4.550781 216.371094 15.464844 C 253.527344 33.75 251.261719 58.339844 251.304688 68.085938 C 252.148438 258.199219 253.46875 258.273438 249.140625 274.613281 C 232.601562 337.035156 93.074219 323.363281 76.289062 320.691406 C 56.113281 317.476562 36.199219 309.328125 35.640625 307.929688 C 32.96875 301.195312 154.074219 277.507812 186.296875 264.816406 C 265.089844 233.777344 149.316406 217.355469 109.28125 208.980469 C 39.871094 194.464844 112.082031 185.296875 112.972656 184.78125 C 113.355469 184.5625 111.753906 184.207031 112.136719 183.984375 C 111.949219 183.488281 111.765625 182.988281 111.582031 182.492188 Z M 111.582031 182.492188 " fill-opacity="1" fill-rule="evenodd"/></g><path fill="#ffffff" d="M 126.261719 98.855469 C 125.988281 101.175781 125.390625 104.140625 126.757812 104.175781 C 128.144531 104.210938 139.761719 93.046875 147.148438 89.191406 C 155.285156 84.949219 154.738281 84.164062 162.578125 79.382812 C 167.96875 76.097656 169.359375 79.976562 167.15625 82.257812 C 165.246094 84.234375 164.980469 83.882812 140.175781 103.363281 C 134.757812 107.617188 143.800781 104.816406 147.886719 106.949219 C 153.867188 110.070312 154.15625 107.5625 160.796875 107.347656 C 172.8125 106.953125 170.269531 112.925781 168.15625 113.898438 C 166.105469 114.84375 165.804688 113.339844 140.550781 119.402344 C 134.632812 120.824219 138.449219 124.820312 141.925781 131.90625 C 146.578125 141.394531 154.171875 147.226562 147.042969 147.835938 C 142.261719 148.246094 138.71875 139.671875 129.519531 133.011719 C 128.066406 131.960938 124.285156 126.640625 124.015625 130.890625 C 123.699219 135.785156 120.164062 152.636719 117.808594 153.761719 C 112.285156 156.394531 114.785156 143.484375 114.886719 136.71875 C 114.914062 135.074219 114.90625 133.425781 114.929688 131.777344 C 115 126.882812 116.695312 120.011719 113.988281 122.121094 C 90.714844 140.28125 89.011719 153.257812 82.628906 143.109375 C 78.734375 136.917969 105.53125 119.828125 105.4375 117.773438 C 105.316406 115.191406 85.964844 119.476562 85.566406 110.355469 C 85.242188 103.019531 103.519531 110.890625 100.023438 106.28125 C 97.605469 103.097656 97.027344 103.617188 92.503906 96.566406 C 81.707031 79.738281 82.667969 78.480469 84.082031 77.644531 C 90.207031 74.027344 96.558594 91.257812 104.097656 93.324219 C 112.351562 95.582031 117.941406 103.761719 118.96875 98.910156 C 121.273438 88.003906 119.714844 55.542969 127.605469 64.234375 C 129.546875 66.375 131.488281 67.003906 126.261719 98.855469 Z M 126.261719 98.855469 " fill-opacity="1" fill-rule="evenodd"/></svg>