<svg xmlns="http://www.w3.org/2000/svg" xmlns:xlink="http://www.w3.org/1999/xlink" width="337" zoomAndPan="magnify" viewBox="0 0 252.75 323.999988" height="432" preserveAspectRatio="xMidYMid meet" version="1.0"><defs><clipPath id="0cb8cd82b1"><path d="M 0 23.578125 L 216.027344 23.578125 L 216.027344 310.492188 L 0 310.492188 Z M 0 23.578125 " clip-rule="nonzero"/></clipPath><clipPath id="917da4d34a"><path d="M 216.027344 79.773438 L 216.027344 254.207031 C 216.027344 269.113281 210.105469 283.40625 199.570312 293.945312 C 189.03125 304.484375 174.738281 310.402344 159.832031 310.402344 L 56.195312 310.402344 C 41.289062 310.402344 26.996094 304.484375 16.457031 293.945312 C 5.921875 283.40625 0 269.113281 0 254.207031 L 0 79.773438 C 0 64.871094 5.921875 50.578125 16.457031 40.039062 C 26.996094 29.5 41.289062 23.578125 56.195312 23.578125 L 159.832031 23.578125 C 174.738281 23.578125 189.03125 29.5 199.570312 40.039062 C 210.105469 50.578125 216.027344 64.871094 216.027344 79.773438 Z M 216.027344 79.773438 " clip-rule="nonzero"/></clipPath><clipPath id="f7effd961c"><path d="M 0 0.578125 L 216.027344 0.578125 L 216.027344 287.414062 L 0 287.414062 Z M 0 0.578125 " clip-rule="nonzero"/></clipPath><clipPath id="7fff565c28"><path d="M 216.027344 56.773438 L 216.027344 231.207031 C 216.027344 246.113281 210.105469 260.40625 199.570312 270.945312 C 189.03125 281.484375 174.738281 287.402344 159.832031 287.402344 L 56.195312 287.402344 C 41.289062 287.402344 26.996094 281.484375 16.457031 270.945312 C 5.921875 260.40625 0 246.113281 0 231.207031 L 0 56.773438 C 0 41.871094 5.921875 27.578125 16.457031 17.039062 C 26.996094 6.5 41.289062 0.578125 56.195312 0.578125 L 159.832031 0.578125 C 174.738281 0.578125 189.03125 6.5 199.570312 17.039062 C 210.105469 27.578125 216.027344 41.871094 216.027344 56.773438 Z M 216.027344 56.773438 " clip-rule="nonzero"/></clipPath><clipPath id="6de1d09736"><rect x="0" width="217" y="0" height="288"/></clipPath><clipPath id="fa86646bf0"><path d="M 0 0.160156 L 252.5 0.160156 L 252.5 323.839844 L 0 323.839844 Z M 0 0.160156 " clip-rule="nonzero"/></clipPath></defs><g clip-path="url(#0cb8cd82b1)"><g clip-path="url(#917da4d34a)"><g transform="matrix(1, 0, 0, 1, 0, 23)"><g clip-path="url(#6de1d09736)"><g clip-path="url(#f7effd961c)"><g clip-path="url(#7fff565c28)"><path fill="#ffffff" d="M 0 0.578125 L 216.027344 0.578125 L 216.027344 287.492188 L 0 287.492188 Z M 0 0.578125 " fill-opacity="1" fill-rule="nonzero"/></g></g></g></g></g></g><g clip-path="url(#fa86646bf0)"><path fill="#fa6742" d="M 111.597656 182.492188 C 101.210938 182.476562 64.695312 189.488281 57.5625 192.179688 C 3.421875 212.613281 145.003906 225.554688 146.917969 238.566406 C 147.46875 242.300781 148.140625 246.871094 69.144531 254.761719 C 5.113281 261.152344 2.605469 261.480469 0.898438 258.53125 C -0.707031 255.761719 0.324219 79.648438 0.410156 64.089844 C 0.894531 -18.433594 175.738281 -4.550781 216.402344 15.464844 C 253.5625 33.75 251.296875 58.339844 251.339844 68.085938 C 252.183594 258.199219 253.503906 258.273438 249.175781 274.613281 C 232.632812 337.035156 93.085938 323.363281 76.296875 320.691406 C 56.121094 317.476562 36.203125 309.328125 35.648438 307.929688 C 32.972656 301.195312 154.097656 277.507812 186.324219 264.816406 C 265.125 233.777344 149.335938 217.355469 109.296875 208.980469 C 39.875 194.464844 112.097656 185.296875 112.988281 184.78125 C 113.371094 184.5625 111.769531 184.207031 112.152344 183.984375 C 111.964844 183.488281 111.78125 182.988281 111.597656 182.492188 Z M 111.597656 182.492188 " fill-opacity="1" fill-rule="evenodd"/></g><path fill="#ffffff" d="M 126.277344 98.855469 C 126.007812 101.175781 125.40625 104.140625 126.777344 104.175781 C 128.160156 104.210938 139.78125 93.046875 147.171875 89.191406 C 155.304688 84.949219 154.761719 84.164062 162.601562 79.382812 C 167.992188 76.097656 169.382812 79.976562 167.179688 82.257812 C 165.269531 84.234375 165.003906 83.882812 140.195312 103.363281 C 134.777344 107.617188 143.820312 104.816406 147.90625 106.949219 C 153.890625 110.070312 154.175781 107.5625 160.816406 107.347656 C 172.835938 106.953125 170.292969 112.925781 168.179688 113.898438 C 166.128906 114.84375 165.828125 113.339844 140.570312 119.402344 C 134.652344 120.824219 138.46875 124.820312 141.945312 131.90625 C 146.597656 141.394531 154.191406 147.226562 147.0625 147.835938 C 142.28125 148.246094 138.738281 139.671875 129.535156 133.011719 C 128.082031 131.960938 124.304688 126.640625 124.03125 130.890625 C 123.71875 135.785156 120.179688 152.636719 117.824219 153.761719 C 112.300781 156.394531 114.800781 143.484375 114.902344 136.71875 C 114.929688 135.074219 114.921875 133.425781 114.945312 131.777344 C 115.015625 126.882812 116.710938 120.011719 114.003906 122.121094 C 90.730469 140.28125 89.023438 153.257812 82.640625 143.109375 C 78.746094 136.917969 105.546875 119.828125 105.453125 117.773438 C 105.332031 115.191406 85.976562 119.476562 85.578125 110.355469 C 85.253906 103.019531 103.53125 110.890625 100.035156 106.28125 C 97.621094 103.097656 97.042969 103.617188 92.519531 96.566406 C 81.71875 79.738281 82.679688 78.480469 84.09375 77.644531 C 90.21875 74.027344 96.570312 91.257812 104.113281 93.324219 C 112.367188 95.582031 117.957031 103.761719 118.984375 98.910156 C 121.292969 88.003906 119.730469 55.542969 127.625 64.234375 C 129.566406 66.375 131.507812 67.003906 126.277344 98.855469 Z M 126.277344 98.855469 " fill-opacity="1" fill-rule="evenodd"/></svg>