<svg xmlns="http://www.w3.org/2000/svg" width="260" zoomAndPan="magnify" viewBox="0 0 194.87999 44.999999" height="60" preserveAspectRatio="xMidYMid meet" version="1.0"><defs><clipPath id="a4fc7361e2"><path d="M 158 9 L 179 9 L 179 37.398438 L 158 37.398438 Z M 158 9 " clip-rule="nonzero" /></clipPath><clipPath id="983ee9b93c"><path d="M 0 0.671875 L 20 0.671875 L 20 29 L 0 29 Z M 0 0.671875 " clip-rule="nonzero" /></clipPath><clipPath id="6372571722"><path d="M 189 7 L 194.761719 7 L 194.761719 15 L 189 15 Z M 189 7 " clip-rule="nonzero" /></clipPath></defs><g clip-path="url(#a4fc7361e2)"><path fill="#ffffff" d="M 172.035156 36.816406 C 170.082031 37.226562 168.597656 37.152344 165.050781 36.203125 C 164.246094 35.988281 159.042969 34.253906 158.742188 33.929688 C 158.4375 33.605469 158.566406 33.210938 158.585938 33.152344 C 159.351562 30.828125 159.707031 30.714844 159.925781 30.640625 C 160.433594 30.476562 160.691406 30.675781 162.007812 31.136719 C 168.070312 33.265625 173.863281 35.574219 174.722656 27.753906 C 174.726562 27.722656 174.96875 26.511719 174.078125 27.175781 C 170.199219 30.082031 161.078125 29.78125 158.519531 21.765625 C 157.003906 17.019531 159.550781 9.855469 167.53125 9.054688 C 172.445312 8.5625 178.574219 11.460938 178.839844 18.5625 C 178.890625 19.832031 178.835938 26.644531 178.832031 27.347656 C 178.816406 29.257812 178.464844 35.367188 172.035156 36.816406 Z M 172.035156 36.816406 M 162.328125 18.964844 C 162.347656 18.585938 162.460938 16.25 164.265625 14.589844 C 168.492188 10.707031 175.242188 14.082031 174.796875 19.359375 C 174.175781 26.691406 162.871094 27.269531 162.328125 18.964844 Z M 162.328125 18.964844" fill-opacity="1" fill-rule="evenodd" /></g><path fill="#ffffff" d="M 99.132812 28.453125 C 98.878906 28.371094 97.0625 27.761719 96.097656 27.070312 C 91.515625 23.800781 91.832031 19.164062 91.875 18.363281 C 92.316406 9.75 102.773438 6.316406 109.027344 11.273438 C 111.46875 13.207031 112.386719 16.257812 112.511719 17.382812 C 113.558594 26.960938 104.644531 30.125 99.132812 28.453125 Z M 99.132812 28.453125 M 108.355469 17.757812 C 108.464844 18.425781 108.722656 19.46875 108.019531 21.335938 C 107.742188 22.070312 106.097656 25.003906 102.371094 25.035156 C 95.707031 25.097656 93.738281 16.578125 99.257812 13.6875 C 102.734375 11.863281 107.324219 13.300781 108.355469 17.757812 Z M 108.355469 17.757812" fill-opacity="1" fill-rule="evenodd" /><path fill="#ffffff" d="M 63.992188 28.410156 C 61.777344 28.96875 58.234375 29.625 54.027344 26.671875 C 52.289062 25.453125 50.371094 22.523438 50.207031 19.773438 C 50.070312 17.46875 50.183594 14.234375 53.742188 11.160156 C 57.265625 8.113281 65.367188 7.730469 68.734375 13.746094 C 70.070312 16.125 70.34375 19.996094 69.636719 20.488281 C 69.273438 20.738281 69.226562 20.671875 59.277344 20.683594 C 55.941406 20.691406 54.519531 20.5 55.078125 21.722656 C 56.453125 24.738281 61.175781 26.230469 64.535156 24.085938 C 65.484375 23.480469 65.632812 23.046875 66.699219 23.871094 C 67.78125 24.699219 69.273438 25.25 67.160156 26.851562 C 65.84375 27.84375 64.261719 28.328125 63.992188 28.410156 Z M 63.992188 28.410156 M 55.71875 17.382812 C 55.5625 17.371094 55.40625 17.375 55.246094 17.363281 C 53.261719 17.207031 55.828125 14.558594 56.648438 14.09375 C 61.910156 11.125 65.75 14.785156 66.292969 16.242188 C 66.796875 17.605469 65.539062 17.386719 61.808594 17.390625 C 57.652344 17.390625 57.664062 17.390625 55.71875 17.382812 Z M 55.71875 17.382812" fill-opacity="1" fill-rule="evenodd" /><g clip-path="url(#983ee9b93c)"><path fill="#ffffff" d="M 19.363281 17.378906 C 19.496094 21.421875 19.414062 26.367188 19.398438 27.148438 C 19.375 28.566406 18.863281 28.507812 16.589844 28.484375 C 15.1875 28.46875 15.398438 27.800781 15.398438 24.355469 C 15.402344 17.707031 15.707031 16.105469 13.351562 14.140625 C 10.707031 11.933594 4.816406 12.574219 4.199219 17.777344 C 3.9375 20 4.316406 27.25 3.980469 27.972656 C 3.742188 28.476562 3.242188 28.53125 1.070312 28.484375 C -0.148438 28.460938 0.0195312 27.777344 0.0234375 23.753906 C 0.0507812 1.660156 -0.0390625 1.632812 0.140625 1.246094 C 0.449219 0.597656 1.101562 0.664062 2.496094 0.679688 C 2.578125 0.683594 3.472656 0.582031 3.886719 1.039062 C 4.132812 1.308594 4.140625 1.355469 4.136719 9.585938 C 4.136719 9.664062 4.136719 10.445312 4.210938 10.53125 C 4.585938 10.957031 5.886719 8.867188 10.253906 9.054688 C 14.8125 9.25 18.359375 12.269531 19.117188 16.160156 C 19.238281 16.773438 19.257812 16.761719 19.363281 17.378906 Z M 19.363281 17.378906 " fill-opacity="1" fill-rule="evenodd" /></g><path fill="#ffffff" d="M 76.105469 20.925781 C 71.699219 10.648438 71.132812 10.21875 71.59375 9.636719 C 71.953125 9.1875 74.835938 9.171875 75.324219 9.667969 C 75.542969 9.886719 81.101562 22.628906 81.183594 22.699219 C 81.640625 23.097656 81.855469 22.203125 82.878906 19.925781 C 83.117188 19.398438 87.347656 9.882812 87.421875 9.761719 C 87.921875 8.972656 90.859375 9.417969 90.910156 9.441406 C 91.738281 9.851562 91.375 10.203125 88.777344 16.210938 C 85.070312 24.785156 85.117188 24.800781 84.789062 25.542969 C 82.425781 30.855469 82.261719 33.492188 79.355469 35.425781 C 76.980469 37.007812 74.210938 36.550781 73.382812 36.289062 C 71.21875 35.601562 71.125 35.175781 71.625 34.179688 C 72.410156 32.613281 72.605469 31.855469 73.777344 32.335938 C 74.109375 32.46875 76.773438 33.554688 78.082031 31.148438 C 79.554688 28.4375 79.117188 27.992188 78.964844 27.519531 C 78.765625 26.898438 76.171875 21.0625 76.105469 20.925781 Z M 76.105469 20.925781 " fill-opacity="1" fill-rule="evenodd" /><path fill="#ffffff" d="M 154.878906 28.433594 C 152.144531 28.625 151.671875 28.515625 151.660156 27.148438 C 151.59375 18.183594 152.207031 16.40625 149.710938 14.222656 C 146.820312 11.695312 140.441406 12.75 140.308594 18.566406 C 140.25 21.128906 140.429688 27.445312 140.191406 27.964844 C 140.09375 28.175781 139.894531 28.617188 137.296875 28.476562 C 136.085938 28.414062 136.285156 27.753906 136.28125 23.753906 C 136.277344 17.011719 135.855469 14.304688 139.699219 11.128906 C 142.679688 8.660156 149.230469 7.785156 153.230469 11.976562 C 155.484375 14.34375 155.636719 17.453125 155.660156 17.96875 C 155.679688 18.3125 155.714844 27.402344 155.644531 27.742188 C 155.527344 28.292969 155.417969 28.25 154.878906 28.433594 Z M 154.878906 28.433594 " fill-opacity="1" fill-rule="evenodd" /><path fill="#ffffff" d="M 119.191406 20.160156 C 119.421875 21.8125 119.777344 22.894531 121.226562 24.074219 C 123.164062 25.648438 128.152344 25.617188 129.496094 21.746094 C 130.257812 19.542969 129.542969 10.570312 130.003906 9.820312 C 130.121094 9.628906 130.414062 9.148438 132.804688 9.34375 C 134.035156 9.445312 133.863281 9.960938 133.847656 14.175781 C 133.832031 19.921875 134.367188 24.046875 130.5 27.082031 C 126.996094 29.828125 117.964844 30.234375 115.605469 22.769531 C 114.964844 20.742188 115.132812 20.667969 115.113281 10.984375 C 115.109375 10.082031 115.011719 9.34375 116.460938 9.332031 C 118.582031 9.3125 119.164062 9.207031 119.175781 10.785156 C 119.1875 12.503906 119.144531 17.8125 119.191406 20.160156 Z M 119.191406 20.160156 " fill-opacity="1" fill-rule="evenodd" /><path fill="#ffffff" d="M 41.320312 28.402344 C 40.695312 28.511719 37.941406 28.632812 37.472656 28.277344 C 36.945312 27.886719 36.871094 27.019531 35.222656 23.335938 C 34.484375 21.691406 34.613281 21.644531 33.859375 20.003906 C 33.492188 19.203125 32.878906 17.589844 31.460938 14.394531 C 31.230469 13.871094 30.902344 12.914062 29.917969 10.761719 C 29.226562 9.257812 30.429688 9.28125 32.726562 9.335938 C 33.894531 9.363281 33.835938 9.671875 34.671875 11.625 C 35 12.394531 37.015625 17.277344 37.21875 17.769531 C 39.015625 22.128906 38.984375 22.140625 39.15625 22.511719 C 39.59375 23.445312 40.136719 21.847656 40.160156 21.796875 C 40.175781 21.761719 41.195312 19.324219 41.707031 18.167969 C 42.753906 15.800781 45.113281 9.917969 45.429688 9.628906 C 45.925781 9.175781 48.863281 9.195312 49.222656 9.625 C 49.628906 10.121094 49.296875 10.210938 45.71875 18.9375 C 44.863281 21.023438 42.796875 25.945312 42.539062 26.554688 C 41.921875 28.027344 41.96875 28.128906 41.320312 28.402344 Z M 41.320312 28.402344 " fill-opacity="1" fill-rule="evenodd" /><path fill="#ffffff" d="M 23.550781 28.457031 C 23.515625 28.441406 22.824219 28.351562 22.789062 27.542969 C 22.78125 27.34375 22.78125 16.929688 22.785156 13.578125 C 22.789062 10.007812 22.558594 9.386719 23.941406 9.34375 C 26.082031 9.277344 26.726562 9.304688 26.8125 10.386719 C 26.847656 10.863281 26.820312 19.382812 26.816406 20.164062 C 26.792969 26.820312 26.929688 27.75 26.589844 28.136719 C 26.429688 28.320312 26.164062 28.617188 23.550781 28.457031 Z M 23.550781 28.457031 " fill-opacity="1" fill-rule="evenodd" /><g clip-path="url(#6372571722)"><path fill="#ffffff" d="M 194.203125 12.898438 C 194.183594 12.96875 194.089844 14.027344 192.78125 14.472656 C 191.496094 14.910156 189.667969 13.976562 189.75 13.488281 C 189.878906 12.734375 190.621094 13.171875 190.6875 13.210938 C 193.25 14.726562 193.84375 11.730469 192.996094 12.148438 C 189.34375 13.957031 188.042969 7.859375 191.625 7.421875 C 192.695312 7.292969 192.8125 7.972656 193.40625 7.636719 C 193.746094 7.441406 194.261719 7.488281 194.292969 7.945312 C 194.332031 8.472656 194.296875 9.566406 194.308594 10.511719 C 194.328125 12.058594 194.328125 12.050781 194.203125 12.898438 Z M 194.203125 12.898438 M 192.421875 8.460938 C 194.382812 9.402344 193 12.328125 191.214844 11.335938 C 189.925781 10.617188 190.28125 7.839844 192.421875 8.460938 Z M 192.421875 8.460938" fill-opacity="1" fill-rule="evenodd" /></g><path fill="#ffffff" d="M 184.109375 7.707031 C 184.304688 7.828125 185.648438 8.683594 185.410156 10.308594 C 184.941406 13.503906 180.445312 13 180.496094 9.917969 C 180.519531 8.621094 181.816406 6.640625 184.109375 7.707031 Z M 184.109375 7.707031 M 183.535156 8.476562 C 185.910156 9.992188 183.351562 12.71875 181.839844 11.046875 C 181.195312 10.332031 181.351562 7.84375 183.535156 8.476562 Z M 183.535156 8.476562" fill-opacity="1" fill-rule="evenodd" /><path fill="#ffffff" d="M 186.277344 9.523438 C 186.285156 8.179688 186.261719 7.828125 186.359375 7.707031 C 186.753906 7.203125 187.25 7.972656 187.734375 7.691406 C 188.652344 7.15625 189.113281 7.488281 189.167969 7.730469 C 189.296875 8.308594 189.117188 8.355469 188.535156 8.382812 C 186.980469 8.464844 187.285156 10.390625 187.285156 10.511719 C 187.320312 12.253906 187.242188 12.414062 186.792969 12.421875 C 186.164062 12.4375 186.28125 12.113281 186.277344 9.523438 Z M 186.277344 9.523438 " fill-opacity="1" fill-rule="evenodd" /><path fill="#ffffff" d="M 179.046875 11.222656 C 179.488281 11.230469 179.5625 11.136719 179.8125 11.515625 C 179.964844 11.753906 179.839844 12.039062 179.820312 12.078125 C 179.429688 12.960938 177.820312 11.957031 179.046875 11.222656 Z M 179.046875 11.222656 " fill-opacity="1" fill-rule="evenodd" /></svg>